<svg width="159" height="28" viewBox="0 0 159 28" fill="none" xmlns="http://www.w3.org/2000/svg">
<path d="M0.26 14.4C0.26 11.928 0.812 9.72 1.916 7.776C3.044 5.808 4.568 4.284 6.488 3.204C8.432 2.1 10.604 1.548 13.004 1.548C15.812 1.548 18.272 2.268 20.384 3.708C22.496 5.148 23.972 7.14 24.812 9.684H19.016C18.44 8.484 17.624 7.584 16.568 6.984C15.536 6.384 14.336 6.084 12.968 6.084C11.504 6.084 10.196 6.432 9.044 7.128C7.916 7.8 7.028 8.76 6.38 10.008C5.756 11.256 5.444 12.72 5.444 14.4C5.444 16.056 5.756 17.52 6.38 18.792C7.028 20.04 7.916 21.012 9.044 21.708C10.196 22.38 11.504 22.716 12.968 22.716C14.336 22.716 15.536 22.416 16.568 21.816C17.624 21.192 18.44 20.28 19.016 19.08H24.812C23.972 21.648 22.496 23.652 20.384 25.092C18.296 26.508 15.836 27.216 13.004 27.216C10.604 27.216 8.432 26.676 6.488 25.596C4.568 24.492 3.044 22.968 1.916 21.024C0.812 19.08 0.26 16.872 0.26 14.4ZM80.0709 0.36V27H75.0309V0.36H80.0709ZM83.7544 16.956C83.7544 14.94 84.1504 13.152 84.9424 11.592C85.7584 10.032 86.8504 8.832 88.2184 7.992C89.6104 7.152 91.1584 6.732 92.8624 6.732C94.3504 6.732 95.6464 7.032 96.7504 7.632C97.8784 8.232 98.7784 8.988 99.4504 9.9V7.056H104.526V27H99.4504V24.084C98.8024 25.02 97.9024 25.8 96.7504 26.424C95.6224 27.024 94.3144 27.324 92.8264 27.324C91.1464 27.324 89.6104 26.892 88.2184 26.028C86.8504 25.164 85.7584 23.952 84.9424 22.392C84.1504 20.808 83.7544 18.996 83.7544 16.956ZM99.4504 17.028C99.4504 15.804 99.2104 14.76 98.7304 13.896C98.2504 13.008 97.6024 12.336 96.7864 11.88C95.9704 11.4 95.0944 11.16 94.1584 11.16C93.2224 11.16 92.3584 11.388 91.5664 11.844C90.7744 12.3 90.1264 12.972 89.6224 13.86C89.1424 14.724 88.9024 15.756 88.9024 16.956C88.9024 18.156 89.1424 19.212 89.6224 20.124C90.1264 21.012 90.7744 21.696 91.5664 22.176C92.3824 22.656 93.2464 22.896 94.1584 22.896C95.0944 22.896 95.9704 22.668 96.7864 22.212C97.6024 21.732 98.2504 21.06 98.7304 20.196C99.2104 19.308 99.4504 18.252 99.4504 17.028ZM114.489 9.972C115.137 9.012 116.025 8.232 117.153 7.632C118.305 7.032 119.613 6.732 121.077 6.732C122.781 6.732 124.317 7.152 125.685 7.992C127.077 8.832 128.169 10.032 128.961 11.592C129.777 13.128 130.185 14.916 130.185 16.956C130.185 18.996 129.777 20.808 128.961 22.392C128.169 23.952 127.077 25.164 125.685 26.028C124.317 26.892 122.781 27.324 121.077 27.324C119.589 27.324 118.281 27.036 117.153 26.46C116.049 25.86 115.161 25.092 114.489 24.156V27H109.449V0.36H114.489V9.972ZM125.037 16.956C125.037 15.756 124.785 14.724 124.281 13.86C123.801 12.972 123.153 12.3 122.337 11.844C121.545 11.388 120.681 11.16 119.745 11.16C118.833 11.16 117.969 11.4 117.153 11.88C116.361 12.336 115.713 13.008 115.209 13.896C114.729 14.784 114.489 15.828 114.489 17.028C114.489 18.228 114.729 19.272 115.209 20.16C115.713 21.048 116.361 21.732 117.153 22.212C117.969 22.668 118.833 22.896 119.745 22.896C120.681 22.896 121.545 22.656 122.337 22.176C123.153 21.696 123.801 21.012 124.281 20.124C124.785 19.236 125.037 18.18 125.037 16.956ZM141.479 27.324C139.847 27.324 138.383 27.036 137.087 26.46C135.791 25.86 134.759 25.056 133.991 24.048C133.247 23.04 132.839 21.924 132.767 20.7H137.843C137.939 21.468 138.311 22.104 138.959 22.608C139.631 23.112 140.459 23.364 141.443 23.364C142.403 23.364 143.147 23.172 143.675 22.788C144.227 22.404 144.503 21.912 144.503 21.312C144.503 20.664 144.167 20.184 143.495 19.872C142.847 19.536 141.803 19.176 140.363 18.792C138.875 18.432 137.651 18.06 136.691 17.676C135.755 17.292 134.939 16.704 134.243 15.912C133.571 15.12 133.235 14.052 133.235 12.708C133.235 11.604 133.547 10.596 134.171 9.684C134.819 8.772 135.731 8.052 136.907 7.524C138.107 6.996 139.511 6.732 141.119 6.732C143.495 6.732 145.391 7.332 146.807 8.532C148.223 9.708 149.003 11.304 149.147 13.32H144.323C144.251 12.528 143.915 11.904 143.315 11.448C142.739 10.968 141.959 10.728 140.975 10.728C140.063 10.728 139.355 10.896 138.851 11.232C138.371 11.568 138.131 12.036 138.131 12.636C138.131 13.308 138.467 13.824 139.139 14.184C139.811 14.52 140.855 14.868 142.271 15.228C143.711 15.588 144.899 15.96 145.835 16.344C146.771 16.728 147.575 17.328 148.247 18.144C148.943 18.936 149.303 19.992 149.327 21.312C149.327 22.464 149.003 23.496 148.355 24.408C147.731 25.32 146.819 26.04 145.619 26.568C144.443 27.072 143.063 27.324 141.479 27.324Z" fill="#171717"/>
<path d="M37.9728 27.324C36.0528 27.324 34.3248 26.904 32.7888 26.064C31.2528 25.2 30.0408 23.988 29.1528 22.428C28.2888 20.868 27.8568 19.068 27.8568 17.028C27.8568 14.988 28.3008 13.188 29.1888 11.628C30.1008 10.068 31.3368 8.868 32.8968 8.028C34.4568 7.164 36.1968 6.732 38.1168 6.732C40.0368 6.732 41.7768 7.164 43.3368 8.028C44.8968 8.868 46.1208 10.068 47.0088 11.628C47.9208 13.188 48.3768 14.988 48.3768 17.028C48.3768 19.068 47.9088 20.868 46.9728 22.428C46.0608 23.988 44.8128 25.2 43.2288 26.064C41.6688 26.904 39.9168 27.324 37.9728 27.324ZM37.9728 22.932C38.8848 22.932 39.7368 22.716 40.5288 22.284C41.3448 21.828 41.9928 21.156 42.4728 20.268C42.9528 19.38 43.1928 18.3 43.1928 17.028C43.1928 15.132 42.6888 13.68 41.6808 12.672C40.6968 11.64 39.4848 11.124 38.0448 11.124C36.6048 11.124 35.3928 11.64 34.4088 12.672C33.4488 13.68 32.9688 15.132 32.9688 17.028C32.9688 18.924 33.4368 20.388 34.3728 21.42C35.3328 22.428 36.5328 22.932 37.9728 22.932ZM60.9298 27.324C59.0098 27.324 57.2818 26.904 55.7458 26.064C54.2098 25.2 52.9978 23.988 52.1098 22.428C51.2458 20.868 50.8138 19.068 50.8138 17.028C50.8138 14.988 51.2578 13.188 52.1458 11.628C53.0578 10.068 54.2938 8.868 55.8538 8.028C57.4138 7.164 59.1538 6.732 61.0738 6.732C62.9938 6.732 64.7338 7.164 66.2938 8.028C67.8538 8.868 69.0778 10.068 69.9658 11.628C70.8778 13.188 71.3338 14.988 71.3338 17.028C71.3338 19.068 70.8658 20.868 69.9298 22.428C69.0178 23.988 67.7698 25.2 66.1858 26.064C64.6258 26.904 62.8738 27.324 60.9298 27.324ZM60.9298 22.932C61.8418 22.932 62.6938 22.716 63.4858 22.284C64.3018 21.828 64.9498 21.156 65.4298 20.268C65.9098 19.38 66.1498 18.3 66.1498 17.028C66.1498 15.132 65.6458 13.68 64.6378 12.672C63.6538 11.64 62.4418 11.124 61.0018 11.124C59.5618 11.124 58.3498 11.64 57.3658 12.672C56.4058 13.68 55.9258 15.132 55.9258 17.028C55.9258 18.924 56.3938 20.388 57.3298 21.42C58.2898 22.428 59.4898 22.932 60.9298 22.932ZM155.696 27.252C154.784 27.252 154.028 26.976 153.428 26.424C152.852 25.848 152.564 25.14 152.564 24.3C152.564 23.46 152.852 22.764 153.428 22.212C154.028 21.636 154.784 21.348 155.696 21.348C156.584 21.348 157.316 21.636 157.892 22.212C158.468 22.764 158.756 23.46 158.756 24.3C158.756 25.14 158.468 25.848 157.892 26.424C157.316 26.976 156.584 27.252 155.696 27.252Z" fill="#205B6C"/>
</svg>
