<svg width="318" height="55" viewBox="0 0 318 55" fill="none" xmlns="http://www.w3.org/2000/svg">
<path d="M0.52 28.8C0.52 23.856 1.624 19.44 3.832 15.552C6.088 11.616 9.136 8.568 12.976 6.408C16.864 4.2 21.208 3.096 26.008 3.096C31.624 3.096 36.544 4.536 40.768 7.416C44.992 10.296 47.944 14.28 49.624 19.368H38.032C36.88 16.968 35.248 15.168 33.136 13.968C31.072 12.768 28.672 12.168 25.936 12.168C23.008 12.168 20.392 12.864 18.088 14.256C15.832 15.6 14.056 17.52 12.76 20.016C11.512 22.512 10.888 25.44 10.888 28.8C10.888 32.112 11.512 35.04 12.76 37.584C14.056 40.08 15.832 42.024 18.088 43.416C20.392 44.76 23.008 45.432 25.936 45.432C28.672 45.432 31.072 44.832 33.136 43.632C35.248 42.384 36.88 40.56 38.032 38.16H49.624C47.944 43.296 44.992 47.304 40.768 50.184C36.592 53.016 31.672 54.432 26.008 54.432C21.208 54.432 16.864 53.352 12.976 51.192C9.136 48.984 6.088 45.936 3.832 42.048C1.624 38.16 0.52 33.744 0.52 28.8ZM160.142 0.719999V54H150.062V0.719999H160.142ZM167.509 33.912C167.509 29.88 168.301 26.304 169.885 23.184C171.517 20.064 173.701 17.664 176.437 15.984C179.221 14.304 182.317 13.464 185.725 13.464C188.701 13.464 191.293 14.064 193.501 15.264C195.757 16.464 197.557 17.976 198.901 19.8V14.112H209.053V54H198.901V48.168C197.605 50.04 195.805 51.6 193.501 52.848C191.245 54.048 188.629 54.648 185.653 54.648C182.293 54.648 179.221 53.784 176.437 52.056C173.701 50.328 171.517 47.904 169.885 44.784C168.301 41.616 167.509 37.992 167.509 33.912ZM198.901 34.056C198.901 31.608 198.421 29.52 197.461 27.792C196.501 26.016 195.205 24.672 193.573 23.76C191.941 22.8 190.189 22.32 188.317 22.32C186.445 22.32 184.717 22.776 183.133 23.688C181.549 24.6 180.253 25.944 179.245 27.72C178.285 29.448 177.805 31.512 177.805 33.912C177.805 36.312 178.285 38.424 179.245 40.248C180.253 42.024 181.549 43.392 183.133 44.352C184.765 45.312 186.493 45.792 188.317 45.792C190.189 45.792 191.941 45.336 193.573 44.424C195.205 43.464 196.501 42.12 197.461 40.392C198.421 38.616 198.901 36.504 198.901 34.056ZM228.978 19.944C230.274 18.024 232.05 16.464 234.306 15.264C236.61 14.064 239.226 13.464 242.154 13.464C245.562 13.464 248.634 14.304 251.37 15.984C254.154 17.664 256.338 20.064 257.922 23.184C259.554 26.256 260.37 29.832 260.37 33.912C260.37 37.992 259.554 41.616 257.922 44.784C256.338 47.904 254.154 50.328 251.37 52.056C248.634 53.784 245.562 54.648 242.154 54.648C239.178 54.648 236.562 54.072 234.306 52.92C232.098 51.72 230.322 50.184 228.978 48.312V54H218.898V0.719999H228.978V19.944ZM250.074 33.912C250.074 31.512 249.57 29.448 248.562 27.72C247.602 25.944 246.306 24.6 244.674 23.688C243.09 22.776 241.362 22.32 239.49 22.32C237.666 22.32 235.938 22.8 234.306 23.76C232.722 24.672 231.426 26.016 230.418 27.792C229.458 29.568 228.978 31.656 228.978 34.056C228.978 36.456 229.458 38.544 230.418 40.32C231.426 42.096 232.722 43.464 234.306 44.424C235.938 45.336 237.666 45.792 239.49 45.792C241.362 45.792 243.09 45.312 244.674 44.352C246.306 43.392 247.602 42.024 248.562 40.248C249.57 38.472 250.074 36.36 250.074 33.912ZM282.959 54.648C279.695 54.648 276.767 54.072 274.175 52.92C271.583 51.72 269.519 50.112 267.983 48.096C266.495 46.08 265.679 43.848 265.535 41.4H275.687C275.879 42.936 276.623 44.208 277.919 45.216C279.263 46.224 280.919 46.728 282.887 46.728C284.807 46.728 286.295 46.344 287.351 45.576C288.455 44.808 289.007 43.824 289.007 42.624C289.007 41.328 288.335 40.368 286.991 39.744C285.695 39.072 283.607 38.352 280.727 37.584C277.751 36.864 275.303 36.12 273.383 35.352C271.511 34.584 269.879 33.408 268.487 31.824C267.143 30.24 266.471 28.104 266.471 25.416C266.471 23.208 267.095 21.192 268.343 19.368C269.639 17.544 271.463 16.104 273.815 15.048C276.215 13.992 279.023 13.464 282.239 13.464C286.991 13.464 290.783 14.664 293.615 17.064C296.447 19.416 298.007 22.608 298.295 26.64H288.647C288.503 25.056 287.831 23.808 286.631 22.896C285.479 21.936 283.919 21.456 281.951 21.456C280.127 21.456 278.711 21.792 277.703 22.464C276.743 23.136 276.263 24.072 276.263 25.272C276.263 26.616 276.935 27.648 278.279 28.368C279.623 29.04 281.711 29.736 284.543 30.456C287.423 31.176 289.799 31.92 291.671 32.688C293.543 33.456 295.151 34.656 296.495 36.288C297.887 37.872 298.607 39.984 298.655 42.624C298.655 44.928 298.007 46.992 296.711 48.816C295.463 50.64 293.639 52.08 291.239 53.136C288.887 54.144 286.127 54.648 282.959 54.648Z" fill="#957748"/>
<path d="M75.9456 54.648C72.1056 54.648 68.6496 53.808 65.5776 52.128C62.5056 50.4 60.0816 47.976 58.3056 44.856C56.5776 41.736 55.7136 38.136 55.7136 34.056C55.7136 29.976 56.6016 26.376 58.3776 23.256C60.2016 20.136 62.6736 17.736 65.7936 16.056C68.9136 14.328 72.3936 13.464 76.2336 13.464C80.0736 13.464 83.5536 14.328 86.6736 16.056C89.7936 17.736 92.2416 20.136 94.0176 23.256C95.8416 26.376 96.7536 29.976 96.7536 34.056C96.7536 38.136 95.8176 41.736 93.9456 44.856C92.1216 47.976 89.6256 50.4 86.4576 52.128C83.3376 53.808 79.8336 54.648 75.9456 54.648ZM75.9456 45.864C77.7696 45.864 79.4736 45.432 81.0576 44.568C82.6896 43.656 83.9856 42.312 84.9456 40.536C85.9056 38.76 86.3856 36.6 86.3856 34.056C86.3856 30.264 85.3776 27.36 83.3616 25.344C81.3936 23.28 78.9696 22.248 76.0896 22.248C73.2096 22.248 70.7856 23.28 68.8176 25.344C66.8976 27.36 65.9376 30.264 65.9376 34.056C65.9376 37.848 66.8736 40.776 68.7456 42.84C70.6656 44.856 73.0656 45.864 75.9456 45.864ZM121.86 54.648C118.02 54.648 114.564 53.808 111.492 52.128C108.42 50.4 105.996 47.976 104.22 44.856C102.492 41.736 101.628 38.136 101.628 34.056C101.628 29.976 102.516 26.376 104.292 23.256C106.116 20.136 108.588 17.736 111.708 16.056C114.828 14.328 118.308 13.464 122.148 13.464C125.988 13.464 129.468 14.328 132.588 16.056C135.708 17.736 138.156 20.136 139.932 23.256C141.756 26.376 142.668 29.976 142.668 34.056C142.668 38.136 141.732 41.736 139.86 44.856C138.036 47.976 135.54 50.4 132.372 52.128C129.252 53.808 125.748 54.648 121.86 54.648ZM121.86 45.864C123.684 45.864 125.388 45.432 126.972 44.568C128.604 43.656 129.9 42.312 130.86 40.536C131.82 38.76 132.3 36.6 132.3 34.056C132.3 30.264 131.292 27.36 129.276 25.344C127.308 23.28 124.884 22.248 122.004 22.248C119.124 22.248 116.7 23.28 114.732 25.344C112.812 27.36 111.852 30.264 111.852 34.056C111.852 37.848 112.788 40.776 114.66 42.84C116.58 44.856 118.98 45.864 121.86 45.864ZM311.393 54.504C309.569 54.504 308.057 53.952 306.857 52.848C305.705 51.696 305.129 50.28 305.129 48.6C305.129 46.92 305.705 45.528 306.857 44.424C308.057 43.272 309.569 42.696 311.393 42.696C313.169 42.696 314.633 43.272 315.785 44.424C316.937 45.528 317.513 46.92 317.513 48.6C317.513 50.28 316.937 51.696 315.785 52.848C314.633 53.952 313.169 54.504 311.393 54.504Z" fill="#DCDDE2"/>
</svg>
