<svg width="28" height="28" viewBox="0 0 28 28" fill="none" xmlns="http://www.w3.org/2000/svg">
<path d="M4.9998 0V1.99995H0C0 10.6663 0 19.3325 0 27.9989H27.9989V1.99995H22.9991V0H20.9992V1.99995H14.9994V0H12.9995V1.99995H6.99972V0H4.9998ZM1.99992 3.9999H4.9998V5.99974H6.99972V3.9999H12.9995V5.99974H14.9994V3.9999H20.9992V5.99974H22.9991V3.9999H25.999V7.99969H1.99992V3.9999ZM1.99992 9.99965H25.999V25.999H1.99992V9.99965ZM8.99965 12.9995V14.9994H10.9996V12.9995H8.99965ZM12.9995 12.9995V14.9994H14.9994V12.9995H12.9995ZM16.9993 12.9995V14.9994H18.9993V12.9995H16.9993ZM20.9992 12.9995V14.9994H22.9991V12.9995H20.9992ZM4.9998 16.9994V18.9993H6.99972V16.9994H4.9998ZM8.99965 16.9994V18.9993H10.9996V16.9994H8.99965ZM12.9995 16.9994V18.9993H14.9994V16.9994H12.9995ZM16.9993 16.9994V18.9993H18.9993V16.9994H16.9993ZM20.9992 16.9994V18.9993H22.9991V16.9994H20.9992ZM4.9998 20.9992V22.9991H6.99972V20.9992H4.9998ZM8.99965 20.9992V22.9991H10.9996V20.9992H8.99965ZM12.9995 20.9992V22.9991H14.9994V20.9992H12.9995Z" fill="#8C8888"/>
</svg>
