<svg width="635" height="109" viewBox="0 0 635 109" fill="none" xmlns="http://www.w3.org/2000/svg">
<path d="M6.664 30.104L5.7964 29.6067L5.79444 29.6102L6.664 30.104ZM24.952 11.816L25.4423 12.6876L25.4458 12.6856L24.952 11.816ZM98.248 37.736V38.736H99.6313L99.1976 37.4225L98.248 37.736ZM75.064 37.736L74.1625 38.1687L74.4348 38.736H75.064V37.736ZM65.272 26.936L64.7694 27.8005L64.778 27.8054L65.272 26.936ZM35.176 27.512L35.6878 28.3711L35.6931 28.3679L35.176 27.512ZM24.52 39.032L23.6325 38.5712L23.629 38.578L23.6256 38.5848L24.52 39.032ZM24.52 74.168L23.6222 74.6084L23.6272 74.6187L23.6325 74.6288L24.52 74.168ZM35.176 85.832L34.6509 86.683L34.6614 86.6895L34.6721 86.6958L35.176 85.832ZM65.272 86.264L65.7746 87.1285L65.7807 87.1249L65.272 86.264ZM75.064 75.32V74.32H74.4348L74.1625 74.8873L75.064 75.32ZM98.248 75.32L99.1984 75.6309L99.6272 74.32H98.248V75.32ZM80.536 99.368L81.0973 100.196L81.0993 100.194L80.536 99.368ZM24.952 101.384L24.4535 102.251L24.4599 102.255L24.4664 102.258L24.952 101.384ZM6.664 83.096L5.7944 83.5898L5.79906 83.5979L6.664 83.096ZM1.04 56.6C1.04 46.8664 3.21186 38.2078 7.53356 30.5978L5.79444 29.6102C1.28414 37.5522 -0.96 46.5576 -0.96 56.6H1.04ZM7.53159 30.6013C11.9567 22.8809 17.9243 16.9164 25.4423 12.6876L24.4617 10.9444C16.6197 15.3556 10.3953 21.5831 5.79641 29.6067L7.53159 30.6013ZM25.4458 12.6856C33.0602 8.36132 41.576 6.192 51.016 6.192V4.192C41.256 4.192 32.3958 6.43868 24.4582 10.9464L25.4458 12.6856ZM51.016 6.192C62.0677 6.192 71.707 9.02255 79.9727 14.6582L81.0993 13.0058C72.469 7.12144 62.4283 4.192 51.016 4.192V6.192ZM79.9727 14.6582C88.2299 20.2882 94.0038 28.0715 97.2984 38.0495L99.1976 37.4225C95.7722 27.0485 89.7381 18.8958 81.0993 13.0058L79.9727 14.6582ZM98.248 36.736H75.064V38.736H98.248V36.736ZM75.9655 37.3033C73.5822 32.338 70.1842 28.5769 65.766 26.0665L64.778 27.8054C68.8078 30.0951 71.9378 33.534 74.1625 38.1687L75.9655 37.3033ZM65.7746 26.0715C61.4728 23.5704 56.4944 22.336 50.872 22.336V24.336C56.1936 24.336 60.8152 25.5015 64.7694 27.8005L65.7746 26.0715ZM50.872 22.336C44.8503 22.336 39.4365 23.7696 34.6589 26.6561L35.6931 28.3679C40.1315 25.6864 45.1817 24.336 50.872 24.336V22.336ZM34.6642 26.6529C29.9809 29.4429 26.3039 33.4263 23.6325 38.5712L25.4075 39.4928C27.9201 34.6537 31.3471 30.9571 35.6878 28.3711L34.6642 26.6529ZM23.6256 38.5848C21.0474 43.7412 19.776 49.7561 19.776 56.6H21.776C21.776 50.0039 23.0006 44.3068 25.4144 39.4792L23.6256 38.5848ZM19.776 56.6C19.776 63.351 21.0485 69.362 23.6222 74.6084L25.4178 73.7276C22.9995 68.798 21.776 63.097 21.776 56.6H19.776ZM23.6325 74.6288C26.3025 79.7711 29.9756 83.7983 34.6509 86.683L35.7011 84.981C31.3524 82.2977 27.9215 78.5489 25.4075 73.7072L23.6325 74.6288ZM34.6721 86.6958C39.4477 89.4816 44.8567 90.864 50.872 90.864V88.864C45.1753 88.864 40.1203 87.5584 35.6799 84.9682L34.6721 86.6958ZM50.872 90.864C56.4944 90.864 61.4728 89.6295 65.7746 87.1285L64.7694 85.3995C60.8152 87.6985 56.1936 88.864 50.872 88.864V90.864ZM65.7807 87.1249C70.1897 84.5196 73.5835 80.7153 75.9655 75.7527L74.1625 74.8873C71.9365 79.5247 68.8023 83.0164 64.7633 85.4031L65.7807 87.1249ZM75.064 76.32H98.248V74.32H75.064V76.32ZM97.2976 75.0091C94.002 85.0841 88.2275 92.9135 79.9727 98.5418L81.0993 100.194C89.7405 94.3025 95.774 86.0999 99.1984 75.6309L97.2976 75.0091ZM79.9747 98.5404C71.8082 104.079 62.1693 106.864 51.016 106.864V108.864C62.5187 108.864 72.5598 105.985 81.0973 100.196L79.9747 98.5404ZM51.016 106.864C41.5721 106.864 33.0534 104.741 25.4376 100.51L24.4664 102.258C32.4026 106.667 41.2599 108.864 51.016 108.864V106.864ZM25.4505 100.517C17.9249 96.1899 11.9543 90.2208 7.52894 82.5941L5.79906 83.5979C10.3977 91.5232 16.6191 97.7461 24.4535 102.251L25.4505 100.517ZM7.53356 82.6022C3.21186 74.9922 1.04 66.3336 1.04 56.6H-0.96C-0.96 66.6424 1.28414 75.6478 5.79444 83.5898L7.53356 82.6022ZM130.155 103.256L129.665 104.128L129.675 104.133L130.155 103.256ZM115.611 88.712L114.736 89.1965L114.742 89.2067L115.611 88.712ZM115.755 45.512L114.892 45.0073L114.886 45.0173L115.755 45.512ZM130.587 31.112L131.061 31.9925L131.072 31.9868L130.587 31.112ZM172.347 31.112L171.863 31.9869L171.873 31.9925L172.347 31.112ZM187.035 45.512L186.166 46.0067L186.172 46.0167L187.035 45.512ZM186.891 88.712L186.034 88.1975L186.028 88.2073L186.891 88.712ZM171.915 103.256L172.389 104.136L172.394 104.134L171.915 103.256ZM161.115 88.136L161.594 89.0139L161.603 89.0089L161.115 88.136ZM168.891 80.072L169.771 80.5475L168.891 80.072ZM165.723 49.688L165 50.3781L165.008 50.3867L165.016 50.3951L165.723 49.688ZM136.635 49.688L135.912 48.9979L135.911 48.9983L136.635 49.688ZM136.491 84.68L135.751 85.3518L135.759 85.3608L135.767 85.3697L136.491 84.68ZM150.891 107.296C143.362 107.296 136.618 105.651 130.635 102.379L129.675 104.133C135.98 107.581 143.06 109.296 150.891 109.296V107.296ZM130.646 102.384C124.663 99.0191 119.944 94.3027 116.48 88.2173L114.742 89.2067C118.382 95.6013 123.36 100.581 129.665 104.128L130.646 102.384ZM116.486 88.2275C113.123 82.156 111.427 75.1272 111.427 67.112H109.427C109.427 75.4168 111.187 82.788 114.736 89.1965L116.486 88.2275ZM111.427 67.112C111.427 59.1014 113.169 52.0763 116.624 46.0067L114.886 45.0173C111.237 51.4277 109.427 58.8026 109.427 67.112H111.427ZM116.619 46.0167C120.176 39.932 124.986 35.2635 131.061 31.9925L130.113 30.2315C123.708 33.6805 118.631 38.612 114.892 45.0073L116.619 46.0167ZM131.072 31.9868C137.152 28.6192 143.943 26.928 151.467 26.928V24.928C143.631 24.928 136.502 26.6928 130.103 30.2372L131.072 31.9868ZM151.467 26.928C158.991 26.928 165.782 28.6192 171.863 31.9868L172.832 30.2372C166.432 26.6928 159.303 24.928 151.467 24.928V26.928ZM171.873 31.9925C177.946 35.2623 182.706 39.9275 186.166 46.0067L187.904 45.0173C184.261 38.6165 179.229 33.6817 172.821 30.2315L171.873 31.9925ZM186.172 46.0167C189.719 52.0846 191.507 59.106 191.507 67.112H193.507C193.507 58.798 191.647 51.4194 187.899 45.0073L186.172 46.0167ZM191.507 67.112C191.507 75.1133 189.674 82.1312 186.034 88.1975L187.749 89.2265C191.597 82.8128 193.507 75.4307 193.507 67.112H191.507ZM186.028 88.2073C182.472 94.2905 177.612 99.0094 171.436 102.378L172.394 104.134C178.89 100.591 184.015 95.6135 187.755 89.2167L186.028 88.2073ZM171.441 102.376C165.361 105.65 158.518 107.296 150.891 107.296V109.296C158.816 109.296 165.99 107.582 172.389 104.136L171.441 102.376ZM150.891 91.728C154.705 91.728 158.278 90.8229 161.594 89.0139L160.636 87.2581C157.617 88.9051 154.374 89.728 150.891 89.728V91.728ZM161.603 89.0089C165.046 87.0849 167.768 84.2526 169.771 80.5475L168.012 79.5965C166.174 82.9954 163.712 85.5391 160.627 87.2631L161.603 89.0089ZM169.771 80.5475C171.788 76.8163 172.771 72.3237 172.771 67.112H170.771C170.771 72.0763 169.835 76.2237 168.012 79.5965L169.771 80.5475ZM172.771 67.112C172.771 59.3533 170.705 53.256 166.43 48.9809L165.016 50.3951C168.805 54.184 170.771 59.7027 170.771 67.112H172.771ZM166.447 48.9979C162.32 44.6698 157.21 42.496 151.179 42.496V44.496C156.669 44.496 161.254 46.4502 165 50.3781L166.447 48.9979ZM151.179 42.496C145.149 42.496 140.038 44.6698 135.912 48.9979L137.359 50.3781C141.104 46.4502 145.69 44.496 151.179 44.496V42.496ZM135.911 48.9983C131.838 53.2751 129.875 59.3658 129.875 67.112H131.875C131.875 59.6902 133.752 54.1649 137.359 50.3777L135.911 48.9983ZM129.875 67.112C129.875 74.8538 131.787 80.9823 135.751 85.3518L137.232 84.0082C133.707 80.1217 131.875 74.5382 131.875 67.112H129.875ZM135.767 85.3697C139.803 89.6074 144.868 91.728 150.891 91.728V89.728C145.394 89.728 140.859 87.8166 137.215 83.9903L135.767 85.3697ZM221.983 103.256L221.493 104.128L221.504 104.133L221.983 103.256ZM207.439 88.712L206.565 89.1965L206.57 89.2067L207.439 88.712ZM207.583 45.512L206.72 45.0073L206.714 45.0173L207.583 45.512ZM222.415 31.112L222.89 31.9925L222.9 31.9868L222.415 31.112ZM264.175 31.112L263.691 31.9869L263.701 31.9925L264.175 31.112ZM278.863 45.512L277.994 46.0067L278 46.0167L278.863 45.512ZM278.719 88.712L277.862 88.1975L277.856 88.2073L278.719 88.712ZM263.743 103.256L264.217 104.136L264.222 104.134L263.743 103.256ZM252.943 88.136L253.422 89.0139L253.431 89.0089L252.943 88.136ZM260.719 80.072L261.599 80.5475L260.719 80.072ZM257.551 49.688L256.828 50.3781L256.836 50.3867L256.844 50.3951L257.551 49.688ZM228.463 49.688L227.74 48.9979L227.739 48.9983L228.463 49.688ZM228.319 84.68L227.579 85.3518L227.587 85.3608L227.595 85.3697L228.319 84.68ZM242.719 107.296C235.19 107.296 228.446 105.651 222.463 102.379L221.504 104.133C227.809 107.581 234.888 109.296 242.719 109.296V107.296ZM222.474 102.384C216.491 99.0191 211.772 94.3027 208.308 88.2173L206.57 89.2067C210.21 95.6013 215.188 100.581 221.493 104.128L222.474 102.384ZM208.314 88.2275C204.951 82.156 203.255 75.1272 203.255 67.112H201.255C201.255 75.4168 203.015 82.788 206.565 89.1965L208.314 88.2275ZM203.255 67.112C203.255 59.1014 204.997 52.0763 208.452 46.0067L206.714 45.0173C203.065 51.4277 201.255 58.8026 201.255 67.112H203.255ZM208.447 46.0167C212.004 39.932 216.815 35.2635 222.889 31.9925L221.941 30.2315C215.536 33.6805 210.459 38.612 206.72 45.0073L208.447 46.0167ZM222.9 31.9868C228.98 28.6192 235.771 26.928 243.295 26.928V24.928C235.459 24.928 228.33 26.6928 221.931 30.2372L222.9 31.9868ZM243.295 26.928C250.819 26.928 257.61 28.6192 263.691 31.9868L264.66 30.2372C258.26 26.6928 251.132 24.928 243.295 24.928V26.928ZM263.701 31.9925C269.774 35.2623 274.534 39.9275 277.994 46.0067L279.732 45.0173C276.089 38.6165 271.057 33.6817 264.649 30.2315L263.701 31.9925ZM278 46.0167C281.547 52.0846 283.335 59.106 283.335 67.112H285.335C285.335 58.798 283.475 51.4194 279.727 45.0073L278 46.0167ZM283.335 67.112C283.335 75.1133 281.502 82.1312 277.862 88.1975L279.577 89.2265C283.425 82.8128 285.335 75.4307 285.335 67.112H283.335ZM277.856 88.2073C274.3 94.2905 269.441 99.0094 263.265 102.378L264.222 104.134C270.718 100.591 275.843 95.6135 279.583 89.2167L277.856 88.2073ZM263.269 102.376C257.189 105.65 250.346 107.296 242.719 107.296V109.296C250.644 109.296 257.818 107.582 264.217 104.136L263.269 102.376ZM242.719 91.728C246.533 91.728 250.106 90.8229 253.422 89.0139L252.465 87.2581C249.445 88.9051 246.202 89.728 242.719 89.728V91.728ZM253.431 89.0089C256.874 87.0849 259.596 84.2526 261.599 80.5475L259.84 79.5965C258.002 82.9954 255.541 85.5391 252.456 87.2631L253.431 89.0089ZM261.599 80.5475C263.616 76.8163 264.599 72.3237 264.599 67.112H262.599C262.599 72.0763 261.663 76.2237 259.84 79.5965L261.599 80.5475ZM264.599 67.112C264.599 59.3533 262.534 53.256 258.258 48.9809L256.844 50.3951C260.633 54.184 262.599 59.7027 262.599 67.112H264.599ZM258.275 48.9979C254.148 44.6698 249.038 42.496 243.007 42.496V44.496C248.497 44.496 253.082 46.4502 256.828 50.3781L258.275 48.9979ZM243.007 42.496C236.977 42.496 231.866 44.6698 227.74 48.9979L229.187 50.3781C232.932 46.4502 237.518 44.496 243.007 44.496V42.496ZM227.739 48.9983C223.666 53.2751 221.703 59.3658 221.703 67.112H223.703C223.703 59.6902 225.581 54.1649 229.188 50.3777L227.739 48.9983ZM221.703 67.112C221.703 74.8538 223.616 80.9823 227.579 85.3518L229.06 84.0082C225.535 80.1217 223.703 74.5382 223.703 67.112H221.703ZM227.595 85.3697C231.631 89.6074 236.696 91.728 242.719 91.728V89.728C237.222 89.728 232.688 87.8166 229.044 83.9903L227.595 85.3697ZM319.284 0.439999H320.284V-0.560001H319.284V0.439999ZM319.284 107V108H320.284V107H319.284ZM299.124 107H298.124V108H299.124V107ZM299.124 0.439999V-0.560001H298.124V0.439999H299.124ZM318.284 0.439999V107H320.284V0.439999H318.284ZM319.284 106H299.124V108H319.284V106ZM300.124 107V0.439999H298.124V107H300.124ZM299.124 1.44H319.284V-0.560001H299.124V1.44ZM338.77 45.368L337.883 44.9045L337.878 44.9153L338.77 45.368ZM351.874 30.968L351.357 30.1118L351.35 30.1158L351.874 30.968ZM386.002 29.528L385.524 30.4067L385.532 30.4109L386.002 29.528ZM396.802 38.6L395.997 39.1932L397.802 41.6429V38.6H396.802ZM396.802 27.224V26.224H395.802V27.224H396.802ZM417.106 27.224H418.106V26.224H417.106V27.224ZM417.106 107V108H418.106V107H417.106ZM396.802 107H395.802V108H396.802V107ZM396.802 95.336H397.802V92.1347L395.979 94.7668L396.802 95.336ZM386.002 104.696L386.471 105.579L386.478 105.575L386.002 104.696ZM351.874 103.112L351.34 103.958L351.346 103.962L351.874 103.112ZM338.77 88.568L337.875 89.0152L337.879 89.0234L337.884 89.0315L338.77 88.568ZM393.922 54.584L393.042 55.0595L393.047 55.0696L393.922 54.584ZM386.146 46.52L385.639 47.3819L385.648 47.3875L385.658 47.3929L386.146 46.52ZM365.266 46.376L364.767 45.5094L365.266 46.376ZM357.49 54.44L356.62 53.9464L356.615 53.9544L357.49 54.44ZM357.49 79.496L356.605 79.9617L356.612 79.9758L356.62 79.9896L357.49 79.496ZM365.266 87.704L364.747 88.5593L364.759 88.5659L365.266 87.704ZM386.146 87.848L386.633 88.7209L386.643 88.7155L386.653 88.7099L386.146 87.848ZM393.922 79.784L394.796 80.2697L394.801 80.2595L393.922 79.784ZM335.018 66.824C335.018 58.8933 336.575 51.9004 339.661 45.8207L337.878 44.9153C334.629 51.3155 333.018 58.6267 333.018 66.824H335.018ZM339.656 45.8315C342.844 39.7355 347.093 35.0767 352.397 31.8202L351.35 30.1158C345.71 33.5793 341.223 38.5205 337.884 44.9045L339.656 45.8315ZM352.39 31.8242C357.795 28.5629 363.807 26.928 370.45 26.928V24.928C363.461 24.928 357.089 26.6531 351.357 30.1118L352.39 31.8242ZM370.45 26.928C376.266 26.928 381.279 28.0998 385.524 30.4066L386.479 28.6494C381.892 26.1562 376.538 24.928 370.45 24.928V26.928ZM385.532 30.4109C389.929 32.7496 393.408 35.6802 395.997 39.1932L397.607 38.0068C394.819 34.2238 391.098 31.1063 386.471 28.6451L385.532 30.4109ZM397.802 38.6V27.224H395.802V38.6H397.802ZM396.802 28.224H417.106V26.224H396.802V28.224ZM416.106 27.224V107H418.106V27.224H416.106ZM417.106 106H396.802V108H417.106V106ZM397.802 107V95.336H395.802V107H397.802ZM395.979 94.7668C393.489 98.3635 390.016 101.384 385.525 103.817L386.478 105.575C391.203 103.016 394.93 99.7965 397.624 95.9052L395.979 94.7668ZM385.532 103.813C381.187 106.124 376.121 107.296 370.306 107.296V109.296C376.394 109.296 381.793 108.068 386.471 105.579L385.532 103.813ZM370.306 107.296C363.767 107.296 357.806 105.617 352.401 102.262L351.346 103.962C357.077 107.519 363.404 109.296 370.306 109.296V107.296ZM352.408 102.267C347.098 98.9128 342.845 94.2026 339.656 88.1045L337.884 89.0315C341.222 95.4134 345.706 100.399 351.34 103.957L352.408 102.267ZM339.664 88.1208C336.575 81.9433 335.018 74.8524 335.018 66.824H333.018C333.018 75.1156 334.628 82.5207 337.875 89.0152L339.664 88.1208ZM397.802 67.112C397.802 62.0861 396.816 57.7344 394.796 54.0984L393.047 55.0696C394.867 58.3456 395.802 62.3459 395.802 67.112H397.802ZM394.801 54.1085C392.799 50.4034 390.076 47.5711 386.633 45.6471L385.658 47.3929C388.743 49.1169 391.205 51.6606 393.042 55.0595L394.801 54.1085ZM386.653 45.6581C383.237 43.6488 379.558 42.64 375.634 42.64V44.64C379.197 44.64 382.526 45.5512 385.639 47.3819L386.653 45.6581ZM375.634 42.64C371.719 42.64 368.09 43.5958 364.767 45.5094L365.765 47.2426C368.777 45.5082 372.06 44.64 375.634 44.64V42.64ZM364.767 45.5094C361.426 47.4325 358.713 50.2578 356.62 53.9464L358.359 54.9336C360.298 51.5182 362.769 48.9675 365.765 47.2426L364.767 45.5094ZM356.615 53.9544C354.597 57.5876 353.61 61.8902 353.61 66.824H355.61C355.61 62.1578 356.542 58.2044 358.364 54.9256L356.615 53.9544ZM353.61 66.824C353.61 71.7595 354.598 76.1482 356.605 79.9617L358.375 79.0303C356.542 75.5478 355.61 71.4885 355.61 66.824H353.61ZM356.62 79.9896C358.711 83.6746 361.419 86.5418 364.747 88.5592L365.784 86.8488C362.777 85.0262 360.3 82.4214 358.359 79.0024L356.62 79.9896ZM364.759 88.5659C368.17 90.5727 371.8 91.584 375.634 91.584V89.584C372.171 89.584 368.889 88.6753 365.773 86.8421L364.759 88.5659ZM375.634 91.584C379.548 91.584 383.22 90.6284 386.633 88.7209L385.658 86.9751C382.543 88.7156 379.207 89.584 375.634 89.584V91.584ZM386.653 88.7099C390.077 86.6954 392.793 83.8744 394.796 80.2696L393.047 79.2984C391.21 82.6056 388.742 85.1606 385.639 86.9861L386.653 88.7099ZM394.801 80.2595C396.815 76.5335 397.802 72.139 397.802 67.112H395.802C395.802 71.877 394.868 75.9305 393.042 79.3085L394.801 80.2595ZM456.955 38.888H455.955V42.1569L457.784 39.4475L456.955 38.888ZM467.611 29.528L467.149 28.641L467.142 28.6451L467.611 29.528ZM501.739 30.968L501.216 31.8202L501.223 31.8242L501.739 30.968ZM514.843 45.368L513.952 45.8207L513.956 45.829L513.96 45.8372L514.843 45.368ZM514.843 88.568L513.954 88.11L513.952 88.1153L514.843 88.568ZM501.739 103.112L501.212 102.262L501.205 102.267L501.739 103.112ZM467.611 104.84L467.134 105.719L467.145 105.725L467.157 105.731L467.611 104.84ZM456.955 95.624L457.768 95.0408L455.955 92.5165V95.624H456.955ZM456.955 107V108H457.955V107H456.955ZM436.795 107H435.795V108H436.795V107ZM436.795 0.439999V-0.560001H435.795V0.439999H436.795ZM456.955 0.439999H457.955V-0.560001H456.955V0.439999ZM496.123 54.44L495.244 54.9155L495.251 54.9298L495.26 54.9439L496.123 54.44ZM488.347 46.376L487.848 47.2427L487.86 47.2489L488.347 46.376ZM467.611 46.52L468.11 47.3867L468.118 47.3819L467.611 46.52ZM459.835 54.584L458.966 54.0904L458.961 54.0994L458.956 54.1085L459.835 54.584ZM459.835 79.64L458.956 80.1155L458.961 80.1246L458.966 80.1336L459.835 79.64ZM467.611 87.848L467.093 88.7032L467.108 88.7123L467.124 88.7209L467.611 87.848ZM488.347 87.704L487.84 86.842L487.829 86.8488L488.347 87.704ZM496.123 79.496L495.254 79.0024L495.249 79.0114L495.244 79.0205L496.123 79.496ZM457.784 39.4475C460.276 35.7566 463.698 32.7421 468.081 30.4109L467.142 28.6451C462.501 31.1139 458.819 34.3394 456.127 38.3285L457.784 39.4475ZM468.073 30.4149C472.521 28.0982 477.592 26.928 483.307 26.928V24.928C477.311 24.928 471.917 26.1578 467.149 28.6411L468.073 30.4149ZM483.307 26.928C489.951 26.928 495.911 28.5628 501.216 31.8202L502.263 30.1158C496.623 26.6531 490.296 24.928 483.307 24.928V26.928ZM501.223 31.8242C506.618 35.0801 510.862 39.7344 513.952 45.8207L515.735 44.9153C512.489 38.5216 507.997 33.5759 502.256 30.1118L501.223 31.8242ZM513.96 45.8372C517.135 51.8136 518.739 58.7993 518.739 66.824H520.739C520.739 58.5287 519.08 51.2104 515.727 44.8988L513.96 45.8372ZM518.739 66.824C518.739 74.8479 517.135 81.935 513.954 88.11L515.732 89.026C519.079 82.529 520.739 75.1201 520.739 66.824H518.739ZM513.952 88.1153C510.861 94.2037 506.614 98.9094 501.212 102.262L502.267 103.962C508.001 100.403 512.49 95.4123 515.735 89.0207L513.952 88.1153ZM501.205 102.267C495.902 105.616 489.945 107.296 483.307 107.296V109.296C490.302 109.296 496.633 107.52 502.273 103.957L501.205 102.267ZM483.307 107.296C477.486 107.296 472.415 106.17 468.066 103.949L467.157 105.731C471.832 108.118 477.225 109.296 483.307 109.296V107.296ZM468.089 103.961C463.793 101.627 460.36 98.6516 457.768 95.0408L456.143 96.2072C458.927 100.084 462.598 103.253 467.134 105.719L468.089 103.961ZM455.955 95.624V107H457.955V95.624H455.955ZM456.955 106H436.795V108H456.955V106ZM437.795 107V0.439999H435.795V107H437.795ZM436.795 1.44H456.955V-0.560001H436.795V1.44ZM455.955 0.439999V38.888H457.955V0.439999H455.955ZM500.147 66.824C500.147 61.8824 499.109 57.573 496.987 53.9361L495.26 54.9439C497.17 58.219 498.147 62.1656 498.147 66.824H500.147ZM497.003 53.9645C495 50.2594 492.278 47.4271 488.835 45.5031L487.86 47.2489C490.945 48.9729 493.406 51.5166 495.244 54.9155L497.003 53.9645ZM488.846 45.5094C485.523 43.5958 481.894 42.64 477.979 42.64V44.64C481.553 44.64 484.836 45.5082 487.848 47.2426L488.846 45.5094ZM477.979 42.64C474.146 42.64 470.516 43.6513 467.104 45.6581L468.118 47.3819C471.235 45.5487 474.517 44.64 477.979 44.64V42.64ZM467.112 45.6534C463.772 47.5765 461.059 50.4018 458.966 54.0904L460.705 55.0776C462.644 51.6621 465.115 49.1115 468.11 47.3866L467.112 45.6534ZM458.956 54.1085C456.943 57.8318 455.955 62.1773 455.955 67.112H457.955C457.955 62.4467 458.888 58.4402 460.715 55.0595L458.956 54.1085ZM455.955 67.112C455.955 72.0467 456.943 76.3922 458.956 80.1155L460.715 79.1645C458.888 75.7838 457.955 71.7773 457.955 67.112H455.955ZM458.966 80.1336C461.057 83.8186 463.764 86.6858 467.093 88.7032L468.13 86.9928C465.122 85.1702 462.646 82.5654 460.705 79.1464L458.966 80.1336ZM467.124 88.7209C470.533 90.6261 474.156 91.584 477.979 91.584V89.584C474.507 89.584 471.218 88.7179 468.099 86.9751L467.124 88.7209ZM477.979 91.584C481.904 91.584 485.54 90.575 488.866 88.5592L487.829 86.8488C484.819 88.673 481.543 89.584 477.979 89.584V91.584ZM488.854 88.5659C492.286 86.5473 495.002 83.6728 497.003 79.9715L495.244 79.0205C493.404 82.4232 490.937 85.0207 487.84 86.8421L488.854 88.5659ZM496.993 79.9896C499.11 76.2598 500.147 71.8587 500.147 66.824H498.147C498.147 71.5813 497.169 75.6282 495.254 79.0024L496.993 79.9896ZM547.349 104.84L546.929 105.747L546.936 105.751L546.943 105.754L547.349 104.84ZM534.965 95.192L534.161 95.7859L534.165 95.792L534.17 95.798L534.965 95.192ZM530.069 81.8V80.8H529.009L529.071 81.8587L530.069 81.8ZM550.373 81.8L551.365 81.676L551.256 80.8H550.373V81.8ZM554.837 89.432L554.223 90.2214L554.23 90.2267L554.237 90.232L554.837 89.432ZM573.701 90.152L573.13 89.3311L573.121 89.3371L573.113 89.3433L573.701 90.152ZM572.981 78.488L572.521 79.3758L572.54 79.3858L572.56 79.395L572.981 78.488ZM560.453 74.168L560.711 73.2018L560.7 73.1988L560.688 73.196L560.453 74.168ZM545.765 69.704L545.386 70.6292L545.394 70.6325L545.765 69.704ZM535.973 62.648L535.211 63.295L535.216 63.3016L535.222 63.3081L535.973 62.648ZM535.685 37.736L534.87 37.1568L534.865 37.164L534.86 37.1713L535.685 37.736ZM546.629 29.096L546.226 28.1807L546.22 28.1837L546.629 29.096ZM586.229 33.128L585.583 33.8909L585.59 33.8973L586.229 33.128ZM595.589 52.28V53.28H596.663L596.587 52.2087L595.589 52.28ZM576.293 52.28L575.297 52.3705L575.38 53.28H576.293V52.28ZM572.261 44.792L571.621 45.5602L571.638 45.5746L571.656 45.5882L572.261 44.792ZM554.405 43.928L553.85 43.0959L553.841 43.1022L553.832 43.1088L554.405 43.928ZM555.557 55.736L555.085 56.6175L555.097 56.6241L555.11 56.6304L555.557 55.736ZM568.085 59.912L567.839 60.8812L567.843 60.8821L568.085 59.912ZM591.989 71.576L591.217 72.2117L591.227 72.2241L591.238 72.2361L591.989 71.576ZM596.309 84.248H597.309V84.2389L597.309 84.2298L596.309 84.248ZM592.421 96.632L591.606 96.0528L591.601 96.06L591.596 96.0673L592.421 96.632ZM581.477 105.272L581.871 106.191L581.88 106.187L581.477 105.272ZM564.917 107.296C558.508 107.296 552.794 106.165 547.755 103.926L546.943 105.754C552.273 108.123 558.27 109.296 564.917 109.296V107.296ZM547.769 103.933C542.714 101.592 538.722 98.4727 535.761 94.586L534.17 95.798C537.352 99.9753 541.616 103.288 546.929 105.747L547.769 103.933ZM535.77 94.5981C532.906 90.7184 531.344 86.4395 531.067 81.7413L529.071 81.8587C529.37 86.9525 531.072 91.6016 534.161 95.7859L535.77 94.5981ZM530.069 82.8H550.373V80.8H530.069V82.8ZM549.381 81.924C549.8 85.2764 551.436 88.0535 554.223 90.2214L555.451 88.6426C553.054 86.7785 551.714 84.4676 551.365 81.676L549.381 81.924ZM554.237 90.232C557.127 92.3991 560.659 93.456 564.773 93.456V91.456C561.015 91.456 557.924 90.4969 555.437 88.632L554.237 90.232ZM564.773 93.456C568.73 93.456 571.943 92.6672 574.289 90.9607L573.113 89.3433C571.235 90.7088 568.497 91.456 564.773 91.456V93.456ZM574.272 90.9729C576.711 89.2762 578.013 87.0188 578.013 84.248H576.013C576.013 86.2772 575.107 87.9558 573.13 89.3311L574.272 90.9729ZM578.013 84.248C578.013 82.7696 577.626 81.4363 576.824 80.2905C576.028 79.1528 574.864 78.2598 573.402 77.581L572.56 79.395C573.786 79.9641 574.638 80.6552 575.186 81.4375C575.728 82.2117 576.013 83.1344 576.013 84.248H578.013ZM573.441 77.6002C570.748 76.2037 566.484 74.7413 560.711 73.2018L560.195 75.1342C565.942 76.6667 570.03 78.0843 572.521 79.3758L573.441 77.6002ZM560.688 73.196C554.763 71.7625 549.917 70.2876 546.137 68.7755L545.394 70.6325C549.294 72.1924 554.239 73.6935 560.218 75.14L560.688 73.196ZM546.145 68.7788C542.549 67.3038 539.411 65.0451 536.724 61.9879L535.222 63.3081C538.103 66.5869 541.493 69.0322 545.386 70.6292L546.145 68.7788ZM536.736 62.001C534.241 59.0614 532.941 55.042 532.941 49.832H530.941C530.941 55.374 532.329 59.8986 535.211 63.295L536.736 62.001ZM532.941 49.832C532.941 45.6177 534.128 41.7825 536.51 38.3007L534.86 37.1713C532.25 40.9855 530.941 45.2143 530.941 49.832H532.941ZM536.5 38.3152C538.974 34.8332 542.472 32.0586 547.039 30.0083L546.22 28.1837C541.378 30.3574 537.58 33.3427 534.87 37.1568L536.5 38.3152ZM547.032 30.0113C551.68 27.9663 557.153 26.928 563.477 26.928V24.928C556.937 24.928 551.179 26.0017 546.226 28.1807L547.032 30.0113ZM563.477 26.928C572.812 26.928 580.145 29.2828 585.583 33.8909L586.876 32.3651C580.985 27.3732 573.15 24.928 563.477 24.928V26.928ZM585.59 33.8973C591.023 38.4092 594.033 44.5296 594.592 52.3512L596.587 52.2087C595.993 43.9024 592.763 37.2548 586.868 32.3587L585.59 33.8973ZM595.589 51.28H576.293V53.28H595.589V51.28ZM577.289 52.1895C576.977 48.7592 575.503 46 572.866 43.9958L571.656 45.5882C573.819 47.2319 575.033 49.4648 575.297 52.3705L577.289 52.1895ZM572.901 44.0238C570.368 41.9127 566.997 40.912 562.901 40.912V42.912C566.677 42.912 569.546 43.8313 571.621 45.5602L572.901 44.0238ZM562.901 40.912C559.149 40.912 556.094 41.6001 553.85 43.0959L554.96 44.76C556.748 43.5679 559.357 42.912 562.901 42.912V40.912ZM553.832 43.1088C551.637 44.6452 550.525 46.827 550.525 49.544H552.525C552.525 47.461 553.333 45.8988 554.979 44.7472L553.832 43.1088ZM550.525 49.544C550.525 51.0633 550.908 52.4445 551.695 53.6537C552.478 54.8563 553.628 55.8367 555.085 56.6175L556.029 54.8545C554.799 54.1953 553.932 53.4237 553.371 52.5623C552.814 51.7075 552.525 50.7127 552.525 49.544H550.525ZM555.11 56.6304C557.897 58.0239 562.157 59.4368 567.839 60.8812L568.332 58.9428C562.685 57.5072 558.594 56.1361 556.004 54.8416L555.11 56.6304ZM567.843 60.8821C573.575 62.3153 578.277 63.7897 581.962 65.3012L582.721 63.4508C578.917 61.8903 574.115 60.3887 568.328 58.9419L567.843 60.8821ZM581.962 65.3012C585.546 66.7717 588.629 69.0692 591.217 72.2117L592.761 70.9403C589.973 67.5548 586.624 65.0523 582.721 63.4508L581.962 65.3012ZM591.238 72.2361C593.829 75.185 595.216 79.1614 595.309 84.2662L597.309 84.2298C597.21 78.7746 595.717 74.303 592.74 70.9159L591.238 72.2361ZM595.309 84.248C595.309 88.655 594.074 92.5793 591.606 96.0528L593.236 97.2112C595.952 93.3887 597.309 89.057 597.309 84.248H595.309ZM591.596 96.0673C589.223 99.5346 585.736 102.306 581.074 104.357L581.88 106.187C586.818 104.014 590.627 101.025 593.246 97.1967L591.596 96.0673ZM581.083 104.353C576.53 106.304 571.149 107.296 564.917 107.296V109.296C571.357 109.296 577.017 108.272 581.871 106.191L581.083 104.353ZM612.714 104.696L612.007 105.403L612.021 105.418L612.037 105.432L612.714 104.696ZM612.714 87.848L613.406 88.57L613.406 88.5694L612.714 87.848ZM630.57 87.848L629.863 88.5551L629.87 88.5626L629.878 88.57L630.57 87.848ZM630.57 104.696L631.262 105.418L631.269 105.411L631.277 105.403L630.57 104.696ZM621.786 107.008C618.357 107.008 615.584 105.978 613.391 103.96L612.037 105.432C614.644 107.83 617.919 109.008 621.786 109.008V107.008ZM613.421 103.989C611.311 101.879 610.258 99.304 610.258 96.2H608.258C608.258 99.816 609.509 102.905 612.007 105.403L613.421 103.989ZM610.258 96.2C610.258 93.0965 611.31 90.5785 613.406 88.57L612.022 87.126C609.51 89.5335 608.258 92.5835 608.258 96.2H610.258ZM613.406 88.5694C615.601 86.4622 618.369 85.392 621.786 85.392V83.392C617.907 83.392 614.626 84.6258 612.021 87.1266L613.406 88.5694ZM621.786 85.392C625.099 85.392 627.764 86.4565 629.863 88.5551L631.277 87.1409C628.768 84.6315 625.577 83.392 621.786 83.392V85.392ZM629.878 88.57C631.974 90.5785 633.026 93.0965 633.026 96.2H635.026C635.026 92.5835 633.774 89.5335 631.262 87.126L629.878 88.57ZM633.026 96.2C633.026 99.304 631.973 101.879 629.863 103.989L631.277 105.403C633.775 102.905 635.026 99.816 635.026 96.2H633.026ZM629.878 103.974C627.782 105.983 625.112 107.008 621.786 107.008V109.008C625.564 109.008 628.75 107.825 631.262 105.418L629.878 103.974Z" fill="#205B6C"/>
</svg>
