<svg width="20" height="26" viewBox="0 0 20 26" fill="none" xmlns="http://www.w3.org/2000/svg">
<path d="M10 11.1429C11.1867 11.1429 12.3467 10.8161 13.3334 10.2039C14.3201 9.59171 15.0892 8.72157 15.5433 7.70352C15.9974 6.68548 16.1162 5.56525 15.8847 4.4845C15.6532 3.40375 15.0818 2.41101 14.2426 1.63184C13.4035 0.852658 12.3344 0.322031 11.1705 0.107056C10.0067 -0.107919 8.80026 0.00241402 7.7039 0.424102C6.60754 0.84579 5.67047 1.55989 5.01118 2.47611C4.35189 3.39233 4 4.46951 4 5.57143C4 7.04907 4.63214 8.46618 5.75736 9.51103C6.88258 10.5559 8.4087 11.1429 10 11.1429ZM10 1.85715C10.7911 1.85715 11.5645 2.07498 12.2223 2.48312C12.8801 2.89125 13.3928 3.47134 13.6955 4.15004C13.9983 4.82873 14.0775 5.57555 13.9231 6.29605C13.7688 7.01655 13.3878 7.67838 12.8284 8.19783C12.269 8.71728 11.5563 9.07103 10.7804 9.21435C10.0044 9.35766 9.20017 9.28411 8.46927 9.00298C7.73836 8.72186 7.11365 8.24579 6.67412 7.63498C6.2346 7.02417 6 6.30605 6 5.57143C6 4.58634 6.42143 3.6416 7.17157 2.94503C7.92172 2.24847 8.93913 1.85715 10 1.85715ZM10 13C7.34784 13 4.8043 13.9783 2.92893 15.7197C1.05357 17.4611 0 19.823 0 22.2857V25.0714C0 25.3177 0.105357 25.5539 0.292893 25.728C0.48043 25.9022 0.734784 26 1 26C1.26522 26 1.51957 25.9022 1.70711 25.728C1.89464 25.5539 2 25.3177 2 25.0714V22.2857C2 20.3155 2.84285 18.426 4.34315 17.0329C5.84344 15.6398 7.87827 14.8571 10 14.8571C12.1217 14.8571 14.1566 15.6398 15.6569 17.0329C17.1571 18.426 18 20.3155 18 22.2857V25.0714C18 25.3177 18.1054 25.5539 18.2929 25.728C18.4804 25.9022 18.7348 26 19 26C19.2652 26 19.5196 25.9022 19.7071 25.728C19.8946 25.5539 20 25.3177 20 25.0714V22.2857C20 19.823 18.9464 17.4611 17.0711 15.7197C15.1957 13.9783 12.6522 13 10 13Z" fill="#B3B192"/>
</svg>
