<?xml version="1.0" encoding="utf-8"?><svg viewBox="0 0 127 100" xmlns="http://www.w3.org/2000/svg" xmlns:xlink="http://www.w3.org/1999/xlink"><style>:root>svg{display:none}:root>svg:target{display:block}</style><svg fill="none" viewBox="0 0 102 24" id="arrow-hero" xmlns="http://www.w3.org/2000/svg"><path d="M101.061 13.06a1.502 1.502 0 000-2.12l-9.546-9.547a1.5 1.5 0 10-2.122 2.122L97.88 12l-8.486 8.485a1.5 1.5 0 102.122 2.122l9.546-9.546zM0 13.5h100v-3H0v3z" fill="#fff"/></svg><svg fill="none" viewBox="0 0 18 18" id="call-footer" xmlns="http://www.w3.org/2000/svg"><path d="M13.745 11.238c-1.24-.113-1.915 1.577-2.816 2.027-1.465.79-4.168-2.027-4.168-2.027s-2.816-2.705-2.14-4.17c.563-.9 2.252-1.577 2.14-2.816C6.648 3.125 4.17-.931 2.93.196.227 2.674.002 3.689.002 5.716c-.113 3.493 4.393 7.888 4.393 7.888.45.45 4.393 4.506 7.885 4.394 2.028 0 3.042-.226 5.52-2.93 1.126-1.24-2.816-3.718-4.055-3.83z" fill="#fff"/></svg><svg fill="none" viewBox="0 0 18 18" id="call-us" xmlns="http://www.w3.org/2000/svg"><path d="M13.745 11.238c-1.24-.113-1.915 1.577-2.816 2.027-1.465.79-4.168-2.027-4.168-2.027s-2.816-2.705-2.14-4.17c.563-.9 2.252-1.577 2.14-2.816C6.648 3.125 4.17-.931 2.93.196.227 2.674.002 3.689.002 5.716c-.113 3.493 4.393 7.888 4.393 7.888.45.45 4.393 4.506 7.885 4.394 2.028 0 3.042-.226 5.52-2.93 1.126-1.24-2.816-3.718-4.055-3.83z" fill="#D5BB96"/></svg><svg fill="none" viewBox="0 0 22 17" id="letter" xmlns="http://www.w3.org/2000/svg"><path d="M19.852.022l-8.856.022L2.14 0h-.005C.945 0 0 1.135 0 2.554v11.892C0 15.866.945 17 2.135 17h17.73C21.055 17 22 15.865 22 14.446V2.554c0-1.42-.936-2.532-2.148-2.532zm-.695 1.752l-7.911 7.348-.03.026-.026.031a.35.35 0 01-.268.118.338.338 0 01-.263-.127l-.026-.03-7.562-7.4 7.925.052 8.161-.018zm.708 13.473H2.135c-.15 0-.41-.289-.41-.801V2.835l7.662 7.518c.388.438.936.693 1.518.701h.026c.574 0 1.109-.24 1.501-.661l7.851-7.3v11.353c-.009.512-.267.801-.418.801z" fill="#D5BB96"/></svg><svg fill="none" viewBox="0 0 127 100" id="ornament" xmlns="http://www.w3.org/2000/svg"><ellipse cx="123.446" cy="3.663" rx="3.663" ry="3.554" transform="rotate(90 123.446 3.663)" fill="#528E86"/><ellipse cx="123.445" cy="34.554" rx="3.663" ry="3.554" transform="rotate(90 123.445 34.554)" fill="#528E86"/><ellipse cx="123.445" cy="65.446" rx="3.663" ry="3.554" transform="rotate(90 123.445 65.446)" fill="#528E86"/><ellipse cx="123.445" cy="96.337" rx="3.663" ry="3.554" transform="rotate(90 123.445 96.337)" fill="#528E86"/><ellipse cx="93.473" cy="3.663" rx="3.663" ry="3.554" transform="rotate(90 93.473 3.663)" fill="#528E86"/><ellipse cx="93.473" cy="34.554" rx="3.663" ry="3.554" transform="rotate(90 93.473 34.554)" fill="#528E86"/><ellipse cx="93.473" cy="65.446" rx="3.663" ry="3.554" transform="rotate(90 93.473 65.446)" fill="#528E86"/><ellipse cx="93.473" cy="96.337" rx="3.663" ry="3.554" transform="rotate(90 93.473 96.337)" fill="#528E86"/><ellipse cx="63.5" cy="3.663" rx="3.663" ry="3.554" transform="rotate(90 63.5 3.663)" fill="#528E86"/><ellipse cx="63.5" cy="34.554" rx="3.663" ry="3.554" transform="rotate(90 63.5 34.554)" fill="#528E86"/><ellipse cx="63.5" cy="65.446" rx="3.663" ry="3.554" transform="rotate(90 63.5 65.446)" fill="#B7CED2"/><ellipse cx="63.5" cy="96.337" rx="3.663" ry="3.554" transform="rotate(90 63.5 96.337)" fill="#528E86"/><ellipse cx="33.527" cy="3.663" rx="3.663" ry="3.554" transform="rotate(90 33.527 3.663)" fill="#528E86"/><ellipse cx="33.527" cy="34.554" rx="3.663" ry="3.554" transform="rotate(90 33.527 34.554)" fill="#528E86"/><ellipse cx="33.527" cy="65.446" rx="3.663" ry="3.554" transform="rotate(90 33.527 65.446)" fill="#528E86"/><ellipse cx="33.527" cy="96.337" rx="3.663" ry="3.554" transform="rotate(90 33.527 96.337)" fill="#528E86"/><ellipse cx="3.554" cy="3.663" rx="3.663" ry="3.554" transform="rotate(90 3.554 3.663)" fill="#528E86"/><ellipse cx="3.554" cy="34.554" rx="3.663" ry="3.554" transform="rotate(90 3.554 34.554)" fill="#528E86"/><ellipse cx="3.554" cy="65.446" rx="3.663" ry="3.554" transform="rotate(90 3.554 65.446)" fill="#528E86"/><ellipse cx="3.554" cy="96.337" rx="3.663" ry="3.554" transform="rotate(90 3.554 96.337)" fill="#528E86"/></svg><svg fill="none" viewBox="0 0 127 100" id="ornament-brown" xmlns="http://www.w3.org/2000/svg"><ellipse cx="123.446" cy="3.663" rx="3.663" ry="3.554" transform="rotate(90 123.446 3.663)" fill="#4F422D"/><ellipse cx="123.445" cy="34.554" rx="3.663" ry="3.554" transform="rotate(90 123.445 34.554)" fill="#4F422D"/><ellipse cx="123.445" cy="65.446" rx="3.663" ry="3.554" transform="rotate(90 123.445 65.446)" fill="#4F422D"/><ellipse cx="123.445" cy="96.337" rx="3.663" ry="3.554" transform="rotate(90 123.445 96.337)" fill="#4F422D"/><ellipse cx="93.473" cy="3.663" rx="3.663" ry="3.554" transform="rotate(90 93.473 3.663)" fill="#4F422D"/><ellipse cx="93.473" cy="34.554" rx="3.663" ry="3.554" transform="rotate(90 93.473 34.554)" fill="#4F422D"/><ellipse cx="93.473" cy="65.446" rx="3.663" ry="3.554" transform="rotate(90 93.473 65.446)" fill="#4F422D"/><ellipse cx="93.473" cy="96.337" rx="3.663" ry="3.554" transform="rotate(90 93.473 96.337)" fill="#4F422D"/><ellipse cx="63.5" cy="3.663" rx="3.663" ry="3.554" transform="rotate(90 63.5 3.663)" fill="#4F422D"/><ellipse cx="63.5" cy="34.554" rx="3.663" ry="3.554" transform="rotate(90 63.5 34.554)" fill="#4F422D"/><ellipse cx="63.5" cy="65.446" rx="3.663" ry="3.554" transform="rotate(90 63.5 65.446)" fill="#4F422D"/><ellipse cx="63.5" cy="96.337" rx="3.663" ry="3.554" transform="rotate(90 63.5 96.337)" fill="#4F422D"/><ellipse cx="33.527" cy="3.663" rx="3.663" ry="3.554" transform="rotate(90 33.527 3.663)" fill="#4F422D"/><ellipse cx="33.527" cy="34.554" rx="3.663" ry="3.554" transform="rotate(90 33.527 34.554)" fill="#4F422D"/><ellipse cx="33.527" cy="65.446" rx="3.663" ry="3.554" transform="rotate(90 33.527 65.446)" fill="#4F422D"/><ellipse cx="33.527" cy="96.337" rx="3.663" ry="3.554" transform="rotate(90 33.527 96.337)" fill="#4F422D"/><ellipse cx="3.554" cy="3.663" rx="3.663" ry="3.554" transform="rotate(90 3.554 3.663)" fill="#4F422D"/><ellipse cx="3.554" cy="34.554" rx="3.663" ry="3.554" transform="rotate(90 3.554 34.554)" fill="#4F422D"/><ellipse cx="3.554" cy="65.446" rx="3.663" ry="3.554" transform="rotate(90 3.554 65.446)" fill="#4F422D"/><ellipse cx="3.554" cy="96.337" rx="3.663" ry="3.554" transform="rotate(90 3.554 96.337)" fill="#4F422D"/></svg><svg fill="none" viewBox="0 0 127 100" id="ornament-main" xmlns="http://www.w3.org/2000/svg"><ellipse cx="123.446" cy="3.663" rx="3.663" ry="3.554" transform="rotate(90 123.446 3.663)" fill="#205B6C"/><ellipse cx="123.445" cy="34.554" rx="3.663" ry="3.554" transform="rotate(90 123.445 34.554)" fill="#205B6C"/><ellipse cx="123.445" cy="65.446" rx="3.663" ry="3.554" transform="rotate(90 123.445 65.446)" fill="#205B6C"/><ellipse cx="123.445" cy="96.337" rx="3.663" ry="3.554" transform="rotate(90 123.445 96.337)" fill="#205B6C"/><ellipse cx="93.473" cy="3.663" rx="3.663" ry="3.554" transform="rotate(90 93.473 3.663)" fill="#205B6C"/><ellipse cx="93.473" cy="34.554" rx="3.663" ry="3.554" transform="rotate(90 93.473 34.554)" fill="#205B6C"/><ellipse cx="93.473" cy="65.446" rx="3.663" ry="3.554" transform="rotate(90 93.473 65.446)" fill="#205B6C"/><ellipse cx="93.473" cy="96.337" rx="3.663" ry="3.554" transform="rotate(90 93.473 96.337)" fill="#205B6C"/><ellipse cx="63.5" cy="3.663" rx="3.663" ry="3.554" transform="rotate(90 63.5 3.663)" fill="#205B6C"/><ellipse cx="63.5" cy="34.554" rx="3.663" ry="3.554" transform="rotate(90 63.5 34.554)" fill="#205B6C"/><ellipse cx="63.5" cy="65.446" rx="3.663" ry="3.554" transform="rotate(90 63.5 65.446)" fill="#205B6C"/><ellipse cx="63.5" cy="96.337" rx="3.663" ry="3.554" transform="rotate(90 63.5 96.337)" fill="#205B6C"/><ellipse cx="33.527" cy="3.663" rx="3.663" ry="3.554" transform="rotate(90 33.527 3.663)" fill="#205B6C"/><ellipse cx="33.527" cy="34.554" rx="3.663" ry="3.554" transform="rotate(90 33.527 34.554)" fill="#205B6C"/><ellipse cx="33.527" cy="65.446" rx="3.663" ry="3.554" transform="rotate(90 33.527 65.446)" fill="#205B6C"/><ellipse cx="33.527" cy="96.337" rx="3.663" ry="3.554" transform="rotate(90 33.527 96.337)" fill="#205B6C"/><ellipse cx="3.554" cy="3.663" rx="3.663" ry="3.554" transform="rotate(90 3.554 3.663)" fill="#205B6C"/><ellipse cx="3.554" cy="34.554" rx="3.663" ry="3.554" transform="rotate(90 3.554 34.554)" fill="#205B6C"/><ellipse cx="3.554" cy="65.446" rx="3.663" ry="3.554" transform="rotate(90 3.554 65.446)" fill="#205B6C"/><ellipse cx="3.554" cy="96.337" rx="3.663" ry="3.554" transform="rotate(90 3.554 96.337)" fill="#205B6C"/></svg></svg>