<?xml version="1.0" encoding="utf-8"?><svg viewBox="0 0 32 32" xmlns="http://www.w3.org/2000/svg" xmlns:xlink="http://www.w3.org/1999/xlink"><style>:root>svg{display:none}:root>svg:target{display:block}</style><svg viewBox="0 0 32 32" id="bedrooms" xmlns="http://www.w3.org/2000/svg"><path d="M23.8 14.77c2.271 0 4.2 1.892 4.2 4.307v3.692h-1.8V24H25v-1.23H7V24H5.8v-1.23H4v-3.693c0-2.33 1.863-4.308 4.2-4.308h15.6zM22.6 8c1.613 0 3 1.33 3 3.077v2.94a3.654 3.654 0 00-1.8-.478l-1.2-.001c0-1.054-.841-1.846-1.8-1.846h-3.6a1.77 1.77 0 00-1.2.47 1.769 1.769 0 00-1.2-.47h-3.6c-.994 0-1.8.826-1.8 1.846H8.2c-.644 0-1.254.172-1.8.479v-2.94C6.4 9.422 7.694 8 9.4 8h13.2zm-7.8 4.923c.326 0 .6.307.6.616l-4.8-.001c0-.377.292-.615.6-.615h3.6zm6 .004c.34-.004.6.296.6.61h-4.8c0-.381.292-.614.6-.614l3.6.004z"/></svg><svg viewBox="0 0 18 18" id="call-us" xmlns="http://www.w3.org/2000/svg"><path d="M13.745 11.238c-1.24-.113-1.915 1.577-2.816 2.027-1.465.79-4.168-2.027-4.168-2.027s-2.816-2.705-2.14-4.17c.563-.9 2.252-1.577 2.14-2.816C6.648 3.125 4.17-.931 2.93.196.227 2.674.002 3.689.002 5.716c-.113 3.493 4.393 7.888 4.393 7.888.45.45 4.393 4.506 7.885 4.394 2.028 0 3.042-.226 5.52-2.93 1.126-1.24-2.816-3.718-4.055-3.83z"/></svg><svg viewBox="0 0 22 17" id="letter" xmlns="http://www.w3.org/2000/svg"><path d="M19.852.022l-8.856.022L2.14 0h-.005C.945 0 0 1.135 0 2.554v11.892C0 15.866.945 17 2.135 17h17.73C21.055 17 22 15.865 22 14.446V2.554c0-1.42-.936-2.532-2.148-2.532zm-.695 1.752l-7.911 7.348-.03.026-.026.031a.35.35 0 01-.268.118.338.338 0 01-.263-.127l-.026-.03-7.562-7.4 7.925.052 8.161-.018zm.708 13.473H2.135c-.15 0-.41-.289-.41-.801V2.835l7.662 7.518c.388.438.936.693 1.518.701h.026c.574 0 1.109-.24 1.501-.661l7.851-7.3v11.353c-.009.512-.267.801-.418.801z"/></svg></svg>