<?xml version="1.0" encoding="utf-8"?><svg viewBox="0 0 360 283" xmlns="http://www.w3.org/2000/svg" xmlns:xlink="http://www.w3.org/1999/xlink"><style>:root>svg{display:none}:root>svg:target{display:block}</style><svg viewBox="0 0 112 24" id="arrow-right-black" xmlns="http://www.w3.org/2000/svg"><path d="M111.061 13.06a1.502 1.502 0 000-2.12l-9.546-9.547a1.5 1.5 0 00-2.122 2.122L107.88 12l-8.486 8.485a1.5 1.5 0 102.122 2.122l9.546-9.546zM0 13.5h110v-3H0v3z"/></svg><svg viewBox="0 0 18 18" id="call-footer" xmlns="http://www.w3.org/2000/svg"><path d="M13.745 11.238c-1.24-.113-1.915 1.577-2.816 2.027-1.465.79-4.168-2.027-4.168-2.027s-2.816-2.705-2.14-4.17c.563-.9 2.252-1.577 2.14-2.816C6.648 3.125 4.17-.931 2.93.196.227 2.674.002 3.689.002 5.716c-.113 3.493 4.393 7.888 4.393 7.888.45.45 4.393 4.506 7.885 4.394 2.028 0 3.042-.226 5.52-2.93 1.126-1.24-2.816-3.718-4.055-3.83z"/></svg><svg viewBox="0 0 18 18" id="call-us" xmlns="http://www.w3.org/2000/svg"><path d="M13.745 11.238c-1.24-.113-1.915 1.577-2.816 2.027-1.465.79-4.168-2.027-4.168-2.027s-2.816-2.705-2.14-4.17c.563-.9 2.252-1.577 2.14-2.816C6.648 3.125 4.17-.931 2.93.196.227 2.674.002 3.689.002 5.716c-.113 3.493 4.393 7.888 4.393 7.888.45.45 4.393 4.506 7.885 4.394 2.028 0 3.042-.226 5.52-2.93 1.126-1.24-2.816-3.718-4.055-3.83z"/></svg><svg viewBox="0 0 22 17" id="letter" xmlns="http://www.w3.org/2000/svg"><path d="M19.852.022l-8.856.022L2.14 0h-.005C.945 0 0 1.135 0 2.554v11.892C0 15.866.945 17 2.135 17h17.73C21.055 17 22 15.865 22 14.446V2.554c0-1.42-.936-2.532-2.148-2.532zm-.695 1.752l-7.911 7.348-.03.026-.026.031a.35.35 0 01-.268.118.338.338 0 01-.263-.127l-.026-.03-7.562-7.4 7.925.052 8.161-.018zm.708 13.473H2.135c-.15 0-.41-.289-.41-.801V2.835l7.662 7.518c.388.438.936.693 1.518.701h.026c.574 0 1.109-.24 1.501-.661l7.851-7.3v11.353c-.009.512-.267.801-.418.801z"/></svg><svg viewBox="0 0 360 283" id="ornament-white" xmlns="http://www.w3.org/2000/svg"><ellipse cx="349.924" cy="10.367" rx="10.367" ry="10.076" transform="rotate(90 349.924 10.367)"/><ellipse cx="349.924" cy="97.789" rx="10.367" ry="10.076" transform="rotate(90 349.924 97.79)"/><ellipse cx="349.924" cy="185.211" rx="10.367" ry="10.076" transform="rotate(90 349.924 185.211)"/><ellipse cx="349.924" cy="272.632" rx="10.367" ry="10.076" transform="rotate(90 349.924 272.632)"/><ellipse cx="264.962" cy="10.367" rx="10.367" ry="10.076" transform="rotate(90 264.962 10.367)"/><ellipse cx="264.962" cy="97.789" rx="10.367" ry="10.076" transform="rotate(90 264.962 97.79)"/><ellipse cx="264.962" cy="185.211" rx="10.367" ry="10.076" transform="rotate(90 264.962 185.211)"/><ellipse cx="264.962" cy="272.632" rx="10.367" ry="10.076" transform="rotate(90 264.962 272.632)"/><ellipse cx="180" cy="10.367" rx="10.367" ry="10.076" transform="rotate(90 180 10.367)"/><ellipse cx="180" cy="97.789" rx="10.367" ry="10.076" transform="rotate(90 180 97.79)"/><ellipse cx="180" cy="185.211" rx="10.367" ry="10.076" transform="rotate(90 180 185.211)"/><ellipse cx="180" cy="272.632" rx="10.367" ry="10.076" transform="rotate(90 180 272.632)"/><ellipse cx="95.037" cy="10.367" rx="10.367" ry="10.076" transform="rotate(90 95.037 10.367)"/><ellipse cx="95.037" cy="97.789" rx="10.367" ry="10.076" transform="rotate(90 95.037 97.79)"/><ellipse cx="95.037" cy="185.211" rx="10.367" ry="10.076" transform="rotate(90 95.037 185.211)"/><ellipse cx="95.037" cy="272.632" rx="10.367" ry="10.076" transform="rotate(90 95.037 272.632)"/><ellipse cx="10.076" cy="10.367" rx="10.367" ry="10.076" transform="rotate(90 10.076 10.367)"/><ellipse cx="10.076" cy="97.789" rx="10.367" ry="10.076" transform="rotate(90 10.076 97.79)"/><ellipse cx="10.076" cy="185.211" rx="10.367" ry="10.076" transform="rotate(90 10.076 185.211)"/><ellipse cx="10.076" cy="272.632" rx="10.367" ry="10.076" transform="rotate(90 10.076 272.632)"/></svg></svg>