<?xml version="1.0" encoding="utf-8"?><svg viewBox="0 0 512 512" xmlns="http://www.w3.org/2000/svg" xmlns:xlink="http://www.w3.org/1999/xlink"><style>:root>svg{display:none}:root>svg:target{display:block}</style><svg viewBox="0 0 112 24" id="arrow-right-black" xmlns="http://www.w3.org/2000/svg"><path d="M111.061 13.06a1.502 1.502 0 000-2.12l-9.546-9.547a1.5 1.5 0 00-2.122 2.122L107.88 12l-8.486 8.485a1.5 1.5 0 102.122 2.122l9.546-9.546zM0 13.5h110v-3H0v3z"/></svg><svg viewBox="0 0 18 18" id="call-footer" xmlns="http://www.w3.org/2000/svg"><path d="M13.745 11.238c-1.24-.113-1.915 1.577-2.816 2.027-1.465.79-4.168-2.027-4.168-2.027s-2.816-2.705-2.14-4.17c.563-.9 2.252-1.577 2.14-2.816C6.648 3.125 4.17-.931 2.93.196.227 2.674.002 3.689.002 5.716c-.113 3.493 4.393 7.888 4.393 7.888.45.45 4.393 4.506 7.885 4.394 2.028 0 3.042-.226 5.52-2.93 1.126-1.24-2.816-3.718-4.055-3.83z"/></svg><svg viewBox="0 0 18 18" id="call-us" xmlns="http://www.w3.org/2000/svg"><path d="M13.745 11.238c-1.24-.113-1.915 1.577-2.816 2.027-1.465.79-4.168-2.027-4.168-2.027s-2.816-2.705-2.14-4.17c.563-.9 2.252-1.577 2.14-2.816C6.648 3.125 4.17-.931 2.93.196.227 2.674.002 3.689.002 5.716c-.113 3.493 4.393 7.888 4.393 7.888.45.45 4.393 4.506 7.885 4.394 2.028 0 3.042-.226 5.52-2.93 1.126-1.24-2.816-3.718-4.055-3.83z"/></svg><svg viewBox="0 0 10 21" id="facebook" xmlns="http://www.w3.org/2000/svg"><path d="M2.547 20.526v-9.631H0V7.427h2.547V4.465C2.547 2.137 4.05 0 7.517 0 8.922 0 9.96.135 9.96.135l-.082 3.238s-1.058-.01-2.213-.01c-1.25 0-1.45.576-1.45 1.532v2.532h3.763l-.164 3.468h-3.6v9.631H2.547z"/></svg><svg viewBox="0 0 22 17" id="letter" xmlns="http://www.w3.org/2000/svg"><path d="M19.852.022l-8.856.022L2.14 0h-.005C.945 0 0 1.135 0 2.554v11.892C0 15.866.945 17 2.135 17h17.73C21.055 17 22 15.865 22 14.446V2.554c0-1.42-.936-2.532-2.148-2.532zm-.695 1.752l-7.911 7.348-.03.026-.026.031a.35.35 0 01-.268.118.338.338 0 01-.263-.127l-.026-.03-7.562-7.4 7.925.052 8.161-.018zm.708 13.473H2.135c-.15 0-.41-.289-.41-.801V2.835l7.662 7.518c.388.438.936.693 1.518.701h.026c.574 0 1.109-.24 1.501-.661l7.851-7.3v11.353c-.009.512-.267.801-.418.801z"/></svg><svg viewBox="0 0 40 40" id="like" xmlns="http://www.w3.org/2000/svg"><path d="M37.143 12.188c0-1.407-.16-2.648-.48-3.724-.32-1.077-.73-1.932-1.228-2.566a6.039 6.039 0 00-1.819-1.549c-.714-.4-1.414-.668-2.098-.807a10.99 10.99 0 00-2.188-.209c-.773 0-1.607.222-2.5.664-.892.443-1.715.999-2.466 1.667a27.382 27.382 0 00-1.931 1.875 19.104 19.104 0 00-1.34 1.602A1.267 1.267 0 0120 9.714c-.461 0-.826-.191-1.094-.573a19.104 19.104 0 00-1.339-1.602 27.382 27.382 0 00-1.93-1.875 11.148 11.148 0 00-2.467-1.667c-.893-.442-1.726-.664-2.5-.664s-1.503.07-2.188.209c-.684.139-1.384.408-2.098.807-.714.4-1.32.916-1.82 1.55-.498.633-.907 1.488-1.227 2.565-.32 1.076-.48 2.317-.48 3.723 0 2.917 1.392 5.999 4.174 9.245L20 36.016l12.946-14.558c2.798-3.264 4.197-6.354 4.197-9.27zm2.857 0c0 3.836-1.704 7.743-5.112 11.718L20.982 39.531c-.268.313-.595.469-.982.469s-.714-.156-.982-.469L5.089 23.854a7.986 7.986 0 01-.614-.677c-.26-.312-.673-.881-1.238-1.706a23.47 23.47 0 01-1.518-2.539c-.447-.868-.845-1.918-1.194-3.15A13.14 13.14 0 010 12.186C0 8.369.945 5.383 2.835 3.23 4.725 1.076 7.336 0 10.67 0c.922 0 1.864.187 2.823.56.96.373 1.853.877 2.679 1.51a29.147 29.147 0 012.132 1.784C18.899 4.41 19.464 5 20 5.625a22.043 22.043 0 011.696-1.77 29.147 29.147 0 012.132-1.785A10.827 10.827 0 0126.507.56c.96-.373 1.9-.56 2.823-.56 3.334 0 5.945 1.076 7.835 3.23C39.055 5.381 40 8.367 40 12.186z"/></svg><svg viewBox="0 0 360 283" id="ornament-white" xmlns="http://www.w3.org/2000/svg"><ellipse cx="349.924" cy="10.367" rx="10.367" ry="10.076" transform="rotate(90 349.924 10.367)"/><ellipse cx="349.924" cy="97.789" rx="10.367" ry="10.076" transform="rotate(90 349.924 97.79)"/><ellipse cx="349.924" cy="185.211" rx="10.367" ry="10.076" transform="rotate(90 349.924 185.211)"/><ellipse cx="349.924" cy="272.632" rx="10.367" ry="10.076" transform="rotate(90 349.924 272.632)"/><ellipse cx="264.962" cy="10.367" rx="10.367" ry="10.076" transform="rotate(90 264.962 10.367)"/><ellipse cx="264.962" cy="97.789" rx="10.367" ry="10.076" transform="rotate(90 264.962 97.79)"/><ellipse cx="264.962" cy="185.211" rx="10.367" ry="10.076" transform="rotate(90 264.962 185.211)"/><ellipse cx="264.962" cy="272.632" rx="10.367" ry="10.076" transform="rotate(90 264.962 272.632)"/><ellipse cx="180" cy="10.367" rx="10.367" ry="10.076" transform="rotate(90 180 10.367)"/><ellipse cx="180" cy="97.789" rx="10.367" ry="10.076" transform="rotate(90 180 97.79)"/><ellipse cx="180" cy="185.211" rx="10.367" ry="10.076" transform="rotate(90 180 185.211)"/><ellipse cx="180" cy="272.632" rx="10.367" ry="10.076" transform="rotate(90 180 272.632)"/><ellipse cx="95.037" cy="10.367" rx="10.367" ry="10.076" transform="rotate(90 95.037 10.367)"/><ellipse cx="95.037" cy="97.789" rx="10.367" ry="10.076" transform="rotate(90 95.037 97.79)"/><ellipse cx="95.037" cy="185.211" rx="10.367" ry="10.076" transform="rotate(90 95.037 185.211)"/><ellipse cx="95.037" cy="272.632" rx="10.367" ry="10.076" transform="rotate(90 95.037 272.632)"/><ellipse cx="10.076" cy="10.367" rx="10.367" ry="10.076" transform="rotate(90 10.076 10.367)"/><ellipse cx="10.076" cy="97.789" rx="10.367" ry="10.076" transform="rotate(90 10.076 97.79)"/><ellipse cx="10.076" cy="185.211" rx="10.367" ry="10.076" transform="rotate(90 10.076 185.211)"/><ellipse cx="10.076" cy="272.632" rx="10.367" ry="10.076" transform="rotate(90 10.076 272.632)"/></svg><svg viewBox="0 0 511.998 511.998" id="pinterest" xmlns="http://www.w3.org/2000/svg"><path d="M405.017 52.467C369.774 18.634 321.001 0 267.684 0 186.24 0 136.148 33.385 108.468 61.39c-34.114 34.513-53.675 80.34-53.675 125.732 0 56.993 23.839 100.737 63.76 117.011 2.68 1.098 5.377 1.651 8.021 1.651 8.422 0 15.095-5.511 17.407-14.35 1.348-5.071 4.47-17.582 5.828-23.013 2.906-10.725.558-15.884-5.78-23.353-11.546-13.662-16.923-29.817-16.923-50.842 0-62.451 46.502-128.823 132.689-128.823 68.386 0 110.866 38.868 110.866 101.434 0 39.482-8.504 76.046-23.951 102.961-10.734 18.702-29.609 40.995-58.585 40.995-12.53 0-23.786-5.147-30.888-14.121-6.709-8.483-8.921-19.441-6.222-30.862 3.048-12.904 7.205-26.364 11.228-39.376 7.337-23.766 14.273-46.213 14.273-64.122 0-30.632-18.832-51.215-46.857-51.215-35.616 0-63.519 36.174-63.519 82.354 0 22.648 6.019 39.588 8.744 46.092-4.487 19.01-31.153 132.03-36.211 153.342-2.925 12.441-20.543 110.705 8.618 118.54 32.764 8.803 62.051-86.899 65.032-97.713 2.416-8.795 10.869-42.052 16.049-62.495 15.817 15.235 41.284 25.535 66.064 25.535 46.715 0 88.727-21.022 118.298-59.189 28.679-37.02 44.474-88.618 44.474-145.282-.002-44.298-19.026-87.97-52.191-119.814z"/></svg><svg viewBox="0 0 40 40" id="share" xmlns="http://www.w3.org/2000/svg"><path d="M32.003 24.026a8.006 8.006 0 00-6.158 2.955l-10.197-4.692a7.26 7.26 0 000-4.513l10.197-4.692a8.006 8.006 0 0010.139 1.83 7.977 7.977 0 00-.001-13.855 8.006 8.006 0 00-10.14 1.833 7.98 7.98 0 00-1.698 6.577L13.59 14.322a8.001 8.001 0 00-12.254 1.292 7.98 7.98 0 003.56 11.78 8.007 8.007 0 008.694-1.65l10.556 4.851a8.316 8.316 0 00-.14 1.418 7.98 7.98 0 004.937 7.379 8.007 8.007 0 008.716-1.731 7.983 7.983 0 00-5.655-13.635zm0-19.968a4.003 4.003 0 013.694 2.465 3.988 3.988 0 01-.867 4.353 4 4 0 01-6.826-2.824c0-1.06.421-2.075 1.171-2.824a4.001 4.001 0 012.828-1.17zM8.01 24.026a4.002 4.002 0 01-3.694-2.465 3.988 3.988 0 01.867-4.353 4 4 0 016.826 2.824 3.99 3.99 0 01-1.171 2.824 4.001 4.001 0 01-2.828 1.17zm23.993 11.98a4.003 4.003 0 01-3.695-2.465 3.988 3.988 0 01.867-4.352 4 4 0 016.826 2.824c0 1.06-.421 2.075-1.17 2.824a4.001 4.001 0 01-2.828 1.17z"/></svg><svg viewBox="0 0 21 17" id="twitter" xmlns="http://www.w3.org/2000/svg"><path d="M20.526 1.98a8.436 8.436 0 01-2.422.652 4.196 4.196 0 001.85-2.319 8.304 8.304 0 01-2.67 1.017A4.196 4.196 0 0014.212 0a4.205 4.205 0 00-4.206 4.208c0 .326.04.652.104.965A11.954 11.954 0 011.436.77a4.177 4.177 0 00-.573 2.124c0 1.46.743 2.748 1.875 3.505a4.243 4.243 0 01-1.902-.535v.051a4.207 4.207 0 003.372 4.13 4.456 4.456 0 01-1.107.143c-.274 0-.533-.027-.795-.064a4.214 4.214 0 003.933 2.918 8.43 8.43 0 01-5.223 1.798c-.352 0-.678-.012-1.016-.051a11.911 11.911 0 006.46 1.887c7.737 0 11.97-6.41 11.97-11.972 0-.182 0-.365-.013-.547a9.06 9.06 0 002.11-2.176z"/></svg></svg>