<svg width="22" height="17" viewBox="0 0 22 17" fill="none" xmlns="http://www.w3.org/2000/svg">
<path d="M19.8518 0.0219072L10.9957 0.0438144L2.13961 0H2.13529C0.944706 0 0 1.13479 0 2.55438V14.4456C0 15.8652 0.944706 17 2.13529 17H19.8647C21.0553 17 22 15.8652 22 14.4456V2.55438C22 1.13479 21.0639 0.0219072 19.8518 0.0219072ZM19.1573 1.77448L11.2459 9.12217L11.2157 9.14845L11.1898 9.17912C11.0949 9.28428 10.9827 9.29742 10.9224 9.29742C10.862 9.29742 10.7498 9.2799 10.6592 9.17036L10.6333 9.13969L3.07137 1.73943L10.9957 1.79201L19.1573 1.77448ZM19.8647 15.2474H2.13529C1.98431 15.2474 1.72549 14.9582 1.72549 14.4456V2.83479L9.38667 10.3533C9.7749 10.7915 10.3227 11.0456 10.9051 11.0544H10.931C11.5047 11.0544 12.0396 10.8134 12.4322 10.3928L20.2831 3.0933V14.4456C20.2745 14.9582 20.0157 15.2474 19.8647 15.2474Z" fill="white"/>
</svg>
