<svg width="40" height="40" viewBox="0 0 40 40" fill="none" xmlns="http://www.w3.org/2000/svg">
<path d="M37.1429 12.1875C37.1429 10.7812 36.9829 9.53993 36.6629 8.46354C36.343 7.38715 35.9338 6.53212 35.4353 5.89844C34.9368 5.26476 34.3304 4.74826 33.6161 4.34896C32.9018 3.94965 32.2024 3.68056 31.5179 3.54167C30.8333 3.40278 30.1042 3.33333 29.3304 3.33333C28.5565 3.33333 27.7232 3.55469 26.8304 3.9974C25.9375 4.4401 25.1153 4.99566 24.3638 5.66406C23.6124 6.33247 22.9688 6.95747 22.433 7.53906C21.8973 8.12066 21.4509 8.65451 21.0938 9.14062C20.8259 9.52257 20.4613 9.71354 20 9.71354C19.5387 9.71354 19.1741 9.52257 18.9062 9.14062C18.5491 8.65451 18.1027 8.12066 17.567 7.53906C17.0312 6.95747 16.3876 6.33247 15.6362 5.66406C14.8847 4.99566 14.0625 4.4401 13.1696 3.9974C12.2768 3.55469 11.4435 3.33333 10.6696 3.33333C9.89583 3.33333 9.16667 3.40278 8.48214 3.54167C7.79762 3.68056 7.09821 3.94965 6.38393 4.34896C5.66964 4.74826 5.06324 5.26476 4.56473 5.89844C4.06622 6.53212 3.65699 7.38715 3.33705 8.46354C3.01711 9.53993 2.85714 10.7812 2.85714 12.1875C2.85714 15.1042 4.24851 18.1858 7.03125 21.4323L20 36.0156L32.9464 21.4583C35.744 18.1944 37.1429 15.1042 37.1429 12.1875ZM40 12.1875C40 16.0243 38.2961 19.9306 34.8884 23.9062L20.9821 39.5312C20.7143 39.8438 20.3869 40 20 40C19.6131 40 19.2857 39.8438 19.0179 39.5312L5.08929 23.8542C4.94048 23.7153 4.73586 23.4896 4.47545 23.1771C4.21503 22.8646 3.80208 22.296 3.23661 21.4714C2.67113 20.6467 2.16518 19.8003 1.71875 18.9323C1.27232 18.0642 0.874256 17.0139 0.524554 15.7812C0.174851 14.5486 0 13.3507 0 12.1875C0 8.36806 0.944941 5.38194 2.83482 3.22917C4.7247 1.07639 7.33631 0 10.6696 0C11.5923 0 12.5335 0.186632 13.4933 0.559896C14.4531 0.93316 15.346 1.43663 16.1719 2.07031C16.9978 2.70399 17.7083 3.29861 18.3036 3.85417C18.8988 4.40972 19.4643 5 20 5.625C20.5357 5 21.1012 4.40972 21.6964 3.85417C22.2917 3.29861 23.0022 2.70399 23.8281 2.07031C24.654 1.43663 25.5469 0.93316 26.5067 0.559896C27.4665 0.186632 28.4077 0 29.3304 0C32.6637 0 35.2753 1.07639 37.1652 3.22917C39.0551 5.38194 40 8.36806 40 12.1875Z" fill="#8C8888"/>
</svg>
