<svg width="127" height="100" viewBox="0 0 127 100" fill="none" xmlns="http://www.w3.org/2000/svg">
<ellipse cx="123.446" cy="3.66337" rx="3.66337" ry="3.55446" transform="rotate(90 123.446 3.66337)" fill="#528E86"/>
<ellipse cx="123.445" cy="34.5545" rx="3.66337" ry="3.55446" transform="rotate(90 123.445 34.5545)" fill="#528E86"/>
<ellipse cx="123.445" cy="65.4457" rx="3.66337" ry="3.55446" transform="rotate(90 123.445 65.4457)" fill="#528E86"/>
<ellipse cx="123.445" cy="96.3366" rx="3.66337" ry="3.55446" transform="rotate(90 123.445 96.3366)" fill="#528E86"/>
<ellipse cx="93.4726" cy="3.66337" rx="3.66337" ry="3.55446" transform="rotate(90 93.4726 3.66337)" fill="#528E86"/>
<ellipse cx="93.4726" cy="34.5545" rx="3.66337" ry="3.55446" transform="rotate(90 93.4726 34.5545)" fill="#528E86"/>
<ellipse cx="93.4726" cy="65.4457" rx="3.66337" ry="3.55446" transform="rotate(90 93.4726 65.4457)" fill="#528E86"/>
<ellipse cx="93.4726" cy="96.3366" rx="3.66337" ry="3.55446" transform="rotate(90 93.4726 96.3366)" fill="#528E86"/>
<ellipse cx="63.5" cy="3.66337" rx="3.66337" ry="3.55446" transform="rotate(90 63.5 3.66337)" fill="#528E86"/>
<ellipse cx="63.5" cy="34.5545" rx="3.66337" ry="3.55446" transform="rotate(90 63.5 34.5545)" fill="#528E86"/>
<ellipse cx="63.5" cy="65.4457" rx="3.66337" ry="3.55446" transform="rotate(90 63.5 65.4457)" fill="#B7CED2"/>
<ellipse cx="63.5" cy="96.3366" rx="3.66337" ry="3.55446" transform="rotate(90 63.5 96.3366)" fill="#528E86"/>
<ellipse cx="33.5271" cy="3.66337" rx="3.66337" ry="3.55446" transform="rotate(90 33.5271 3.66337)" fill="#528E86"/>
<ellipse cx="33.5271" cy="34.5545" rx="3.66337" ry="3.55446" transform="rotate(90 33.5271 34.5545)" fill="#528E86"/>
<ellipse cx="33.5271" cy="65.4457" rx="3.66337" ry="3.55446" transform="rotate(90 33.5271 65.4457)" fill="#528E86"/>
<ellipse cx="33.5271" cy="96.3366" rx="3.66337" ry="3.55446" transform="rotate(90 33.5271 96.3366)" fill="#528E86"/>
<ellipse cx="3.55442" cy="3.66337" rx="3.66337" ry="3.55446" transform="rotate(90 3.55442 3.66337)" fill="#528E86"/>
<ellipse cx="3.55449" cy="34.5545" rx="3.66337" ry="3.55446" transform="rotate(90 3.55449 34.5545)" fill="#528E86"/>
<ellipse cx="3.55449" cy="65.4457" rx="3.66337" ry="3.55446" transform="rotate(90 3.55449 65.4457)" fill="#528E86"/>
<ellipse cx="3.55449" cy="96.3366" rx="3.66337" ry="3.55446" transform="rotate(90 3.55449 96.3366)" fill="#528E86"/>
</svg>
