<svg width="360" height="283" viewBox="0 0 360 283" fill="none" xmlns="http://www.w3.org/2000/svg">
<ellipse cx="349.924" cy="10.3673" rx="10.3673" ry="10.0756" transform="rotate(90 349.924 10.3673)" fill="white"/>
<ellipse cx="349.924" cy="97.7892" rx="10.3673" ry="10.0756" transform="rotate(90 349.924 97.7892)" fill="white"/>
<ellipse cx="349.924" cy="185.211" rx="10.3673" ry="10.0756" transform="rotate(90 349.924 185.211)" fill="white"/>
<ellipse cx="349.924" cy="272.632" rx="10.3673" ry="10.0756" transform="rotate(90 349.924 272.632)" fill="white"/>
<ellipse cx="264.962" cy="10.3673" rx="10.3673" ry="10.0756" transform="rotate(90 264.962 10.3673)" fill="white"/>
<ellipse cx="264.962" cy="97.7892" rx="10.3673" ry="10.0756" transform="rotate(90 264.962 97.7892)" fill="white"/>
<ellipse cx="264.962" cy="185.211" rx="10.3673" ry="10.0756" transform="rotate(90 264.962 185.211)" fill="white"/>
<ellipse cx="264.962" cy="272.632" rx="10.3673" ry="10.0756" transform="rotate(90 264.962 272.632)" fill="white"/>
<ellipse cx="180" cy="10.3673" rx="10.3673" ry="10.0756" transform="rotate(90 180 10.3673)" fill="white"/>
<ellipse cx="180" cy="97.7892" rx="10.3673" ry="10.0756" transform="rotate(90 180 97.7892)" fill="white"/>
<ellipse cx="180" cy="185.211" rx="10.3673" ry="10.0756" transform="rotate(90 180 185.211)" fill="white"/>
<ellipse cx="180" cy="272.632" rx="10.3673" ry="10.0756" transform="rotate(90 180 272.632)" fill="white"/>
<ellipse cx="95.0374" cy="10.3673" rx="10.3673" ry="10.0756" transform="rotate(90 95.0374 10.3673)" fill="white"/>
<ellipse cx="95.0374" cy="97.7892" rx="10.3673" ry="10.0756" transform="rotate(90 95.0374 97.7892)" fill="white"/>
<ellipse cx="95.0374" cy="185.211" rx="10.3673" ry="10.0756" transform="rotate(90 95.0374 185.211)" fill="white"/>
<ellipse cx="95.0375" cy="272.632" rx="10.3673" ry="10.0756" transform="rotate(90 95.0375 272.632)" fill="white"/>
<ellipse cx="10.0756" cy="10.3673" rx="10.3673" ry="10.0756" transform="rotate(90 10.0756 10.3673)" fill="white"/>
<ellipse cx="10.0757" cy="97.7892" rx="10.3673" ry="10.0756" transform="rotate(90 10.0757 97.7892)" fill="white"/>
<ellipse cx="10.0757" cy="185.211" rx="10.3673" ry="10.0756" transform="rotate(90 10.0757 185.211)" fill="white"/>
<ellipse cx="10.0757" cy="272.632" rx="10.3673" ry="10.0756" transform="rotate(90 10.0757 272.632)" fill="white"/>
</svg>
