<svg width="40" height="40" viewBox="0 0 40 40" fill="none" xmlns="http://www.w3.org/2000/svg">
<path d="M32.0026 24.0258C30.8213 24.0336 29.6565 24.3027 28.5917 24.8137C27.527 25.3246 26.5888 26.0648 25.8446 26.981L15.6479 22.2886C16.1273 20.8225 16.1273 19.2421 15.6479 17.7759L25.8446 13.0835C27.0474 14.5331 28.7243 15.5118 30.5794 15.8467C32.4344 16.1817 34.3482 15.8515 35.9832 14.9144C37.6182 13.9772 38.8691 12.4934 39.5152 10.7248C40.1614 8.95622 40.1612 7.0165 39.5148 5.24801C38.8683 3.47952 37.6171 1.99594 35.9819 1.05911C34.3468 0.122271 32.4329 -0.207595 30.5779 0.127723C28.723 0.463041 27.0462 1.44199 25.8437 2.89179C24.6411 4.3416 23.99 6.16906 24.0052 8.05166C24.0112 8.52736 24.058 9.00166 24.1451 9.46937L13.5886 14.3215C12.4631 13.2225 11.0379 12.4795 9.49152 12.1858C7.94515 11.8921 6.34637 12.0607 4.8955 12.6705C3.44464 13.2802 2.2062 14.304 1.33536 15.6136C0.46452 16.9231 0 18.4602 0 20.0323C0 21.6043 0.46452 23.1415 1.33536 24.451C2.2062 25.7606 3.44464 26.7844 4.8955 27.3941C6.34637 28.0039 7.94515 28.1724 9.49152 27.8787C11.0379 27.585 12.4631 26.8421 13.5886 25.7431L24.1451 30.5952C24.058 31.0629 24.0112 31.5372 24.0052 32.0129C24.0052 33.5926 24.4742 35.1368 25.353 36.4503C26.2318 37.7638 27.4808 38.7875 28.9421 39.392C30.4035 39.9965 32.0115 40.1547 33.5628 39.8465C35.1142 39.5383 36.5392 38.7776 37.6576 37.6606C38.7761 36.5436 39.5377 35.1205 39.8463 33.5711C40.1549 32.0218 39.9965 30.4158 39.3912 28.9564C38.7859 27.4969 37.7609 26.2495 36.4457 25.3719C35.1305 24.4943 33.5843 24.0258 32.0026 24.0258ZM32.0026 4.05812C32.7935 4.05812 33.5666 4.29234 34.2242 4.73115C34.8817 5.16997 35.3943 5.79367 35.6969 6.5234C35.9996 7.25312 36.0788 8.05609 35.9245 8.83076C35.7702 9.60543 35.3893 10.317 34.8301 10.8755C34.2709 11.434 33.5584 11.8144 32.7827 11.9685C32.007 12.1226 31.203 12.0435 30.4724 11.7412C29.7417 11.439 29.1172 10.9271 28.6778 10.2704C28.2384 9.61362 28.0039 8.84151 28.0039 8.05166C28.0039 6.99251 28.4252 5.97674 29.1751 5.2278C29.925 4.47887 30.9421 4.05812 32.0026 4.05812ZM8.01039 24.0258C7.21952 24.0258 6.44642 23.7916 5.78883 23.3528C5.13125 22.914 4.61873 22.2903 4.31607 21.5605C4.01342 20.8308 3.93423 20.0279 4.08853 19.2532C4.24282 18.4785 4.62366 17.7669 5.18288 17.2084C5.74211 16.6499 6.45461 16.2696 7.23028 16.1155C8.00596 15.9614 8.80996 16.0405 9.54063 16.3427C10.2713 16.645 10.8958 17.1569 11.3352 17.8136C11.7746 18.4703 12.0091 19.2424 12.0091 20.0323C12.0091 21.0914 11.5878 22.1072 10.8379 22.8561C10.088 23.6051 9.07091 24.0258 8.01039 24.0258ZM32.0026 36.0065C31.2117 36.0065 30.4386 35.7722 29.781 35.3334C29.1235 34.8946 28.6109 34.2709 28.3083 33.5412C28.0056 32.8115 27.9264 32.0085 28.0807 31.2338C28.235 30.4591 28.6159 29.7476 29.1751 29.1891C29.7343 28.6305 30.4468 28.2502 31.2225 28.0961C31.9982 27.942 32.8022 28.0211 33.5328 28.3234C34.2635 28.6256 34.888 29.1375 35.3274 29.7942C35.7668 30.451 36.0013 31.2231 36.0013 32.0129C36.0013 33.0721 35.58 34.0878 34.8301 34.8368C34.0802 35.5857 33.0631 36.0065 32.0026 36.0065Z" fill="#8C8888"/>
</svg>
